<svg width="90" height="56" viewBox="0 0 90 56" fill="none" xmlns="http://www.w3.org/2000/svg">
<path d="M66.3131 15.3575L66.3554 24.1697L66.4431 43.903C66.4333 56.3185 22.9865 55.4507 22.9986 42.9037L22.9835 39.5277L22.8687 14.3582L66.3131 15.3575Z" fill="#2D6FE5"/>
<path d="M44.0232 29.0955L0 14.5613L44.0862 2.65393L88.1108 16.7317L44.0232 29.0955Z" fill="#0E428E"/>
<path d="M15.9341 31.7813C15.9341 31.7813 15.9341 31.7813 15.9278 31.783C15.5797 31.7691 15.3025 31.4457 15.3065 31.0508L15.4744 18.8586L44.1509 11.6359C44.4879 11.549 44.8307 11.7872 44.917 12.1716C45.0016 12.549 44.7945 12.9264 44.4513 13.0152L16.7238 19.9943L16.5711 31.0977C16.5654 31.4856 16.2806 31.7882 15.9403 31.7795L15.9341 31.7813Z" fill="#FFCC00"/>
<path d="M19.2781 41.1576L18.4778 41.1371L17.5732 35.5457L16.8224 41.0961L15.9124 41.0758L15.326 37.197L14.6846 41.045L13.6166 41.0232L13.6256 30.9406C13.6271 29.1595 14.8966 27.7505 16.4552 27.788C18.0202 27.8236 19.2823 29.2957 19.279 31.0695L19.2699 41.1521L19.2781 41.1576Z" fill="#FFCC00"/>
<path d="M66.5014 25.0984L66.578 44.3718C66.5619 56.4978 23.6111 55.6072 23.6296 43.3527C23.6296 43.3527 59.4651 48.9578 66.4951 25.1002L66.5014 25.0984Z" fill="#2469CE"/>
<path d="M69.6366 11.8927C69.6366 11.8927 48.7566 29.3725 23.0201 22.891L44.2183 29.8048L88.1539 17.7388L69.6349 11.8859L69.6366 11.8927Z" fill="#0E3A70"/>
</svg>
