<svg width="408" height="50" viewBox="0 0 408 50" fill="none" xmlns="http://www.w3.org/2000/svg">
<path d="M334.51 31.2899C334.51 31.0799 334.45 30.8699 334.34 30.6899C334.23 30.5099 334.06 30.3698 333.86 30.2798C333.66 30.1998 333.45 30.1798 333.24 30.2198C333.03 30.2598 332.84 30.3599 332.69 30.5099C332.54 30.6599 332.44 30.8499 332.4 31.0599C332.36 31.2699 332.38 31.4899 332.46 31.6799C332.54 31.8799 332.68 32.0499 332.86 32.1699C333.03 32.2799 333.24 32.3499 333.44 32.3499C333.57 32.3499 333.71 32.3399 333.83 32.2899C333.96 32.2499 334.08 32.1798 334.18 32.0898C334.28 31.9998 334.36 31.8899 334.42 31.7699C334.48 31.6499 334.51 31.5199 334.52 31.3799V31.2899H334.51ZM331.87 30.9199C331.87 30.2399 332.04 29.4598 332.66 29.0898C333.06 28.9098 333.47 28.7799 333.9 28.6999C334.09 28.6399 334.23 28.5399 334.25 28.3799H334.68C334.68 28.5399 334.64 28.6999 334.53 28.8299C334.43 28.9499 334.28 29.0399 334.12 29.0599C333.7 29.1399 333.29 29.2599 332.89 29.4199C332.51 29.6199 332.3 30.0599 332.26 30.6199H332.28C332.38 30.3699 332.55 30.1599 332.78 30.0099C333.01 29.8599 333.27 29.7899 333.54 29.8099C333.73 29.8099 333.92 29.8399 334.1 29.9099C334.28 29.9799 334.44 30.0899 334.57 30.2299C334.7 30.3699 334.8 30.5298 334.87 30.7098C334.93 30.8898 334.96 31.0799 334.95 31.2699C334.95 31.4699 334.92 31.6699 334.85 31.8599C334.77 32.0499 334.66 32.2199 334.52 32.3599C334.38 32.4999 334.2 32.6099 334.01 32.6799C333.82 32.7499 333.62 32.7799 333.42 32.7699C332.55 32.7899 331.87 32.2799 331.87 30.9299" fill="white"/>
<path d="M335.54 29.8599H335.98V32.0099L337.6 29.8599H338.04V32.6799H337.59V30.5298L336 32.6899H335.55L335.54 29.8599Z" fill="white"/>
<path d="M338.52 32.51L338.71 32.13C339.02 32.29 339.36 32.38 339.71 32.37C340.17 32.37 340.5 32.25 340.5 31.88C340.5 31.51 340.23 31.4 339.74 31.4H339.2V31.01H339.71C340.14 31.01 340.41 30.91 340.41 30.6C340.41 30.29 340.14 30.19 339.72 30.19C339.4 30.19 339.07 30.26 338.77 30.38L338.61 29.98C338.97 29.84 339.35 29.77 339.73 29.77C340.44 29.77 340.86 30.04 340.86 30.5C340.86 30.59 340.84 30.67 340.81 30.75C340.78 30.83 340.73 30.91 340.67 30.97C340.54 31.09 340.37 31.16 340.19 31.16C340.67 31.22 340.93 31.47 340.93 31.91C340.93 32.43 340.55 32.77 339.68 32.77C339.27 32.78 338.87 32.69 338.51 32.5" fill="white"/>
<path d="M344.05 29.8599V32.6799H343.61V31.3899H341.97V32.6799H341.53V29.8599H341.97V30.9899H343.61V29.8599H344.05Z" fill="white"/>
<path d="M345.1 30.99H346.95C346.95 30.88 346.92 30.77 346.87 30.66C346.82 30.56 346.76 30.46 346.67 30.39C346.59 30.31 346.49 30.26 346.38 30.22C346.27 30.19 346.16 30.17 346.04 30.18C345.81 30.16 345.58 30.24 345.4 30.39C345.22 30.54 345.11 30.76 345.1 30.99ZM347.42 31.26V31.34H345.08C345.08 31.47 345.1 31.61 345.15 31.73C345.2 31.86 345.27 31.97 345.37 32.06C345.47 32.15 345.58 32.23 345.71 32.27C345.83 32.32 345.97 32.34 346.1 32.33C346.29 32.33 346.48 32.28 346.65 32.19C346.82 32.09 346.96 31.96 347.06 31.79L347.38 32.08C347.24 32.29 347.05 32.47 346.83 32.59C346.61 32.71 346.36 32.77 346.1 32.76C345.9 32.76 345.7 32.74 345.52 32.66C345.34 32.59 345.17 32.48 345.03 32.34C344.89 32.2 344.79 32.03 344.72 31.84C344.65 31.65 344.62 31.45 344.64 31.26C344.64 30.38 345.21 29.75 346.07 29.75C347 29.77 347.43 30.41 347.43 31.25" fill="white"/>
<path d="M347.83 31.2802C347.83 31.0802 347.86 30.8802 347.93 30.6902C348 30.5002 348.12 30.3302 348.26 30.1902C348.4 30.0502 348.58 29.9402 348.77 29.8702C348.96 29.8002 349.16 29.7702 349.36 29.7802C349.7 29.7802 350.04 29.8702 350.33 30.0502L350.12 30.4302C349.89 30.2902 349.63 30.2102 349.36 30.2002C349.07 30.2002 348.8 30.3102 348.6 30.5202C348.4 30.7202 348.28 31.0002 348.28 31.2802C348.28 31.5602 348.39 31.8402 348.6 32.0402C348.8 32.2402 349.08 32.3602 349.36 32.3602C349.63 32.3602 349.89 32.2702 350.12 32.1302L350.33 32.5102C350.04 32.6902 349.71 32.7802 349.36 32.7802C349.16 32.7902 348.96 32.7602 348.77 32.6902C348.58 32.6202 348.41 32.5102 348.27 32.3702C348.12 32.2302 348.01 32.0602 347.94 31.8802C347.87 31.6902 347.83 31.4902 347.84 31.2902L347.83 31.2802Z" fill="white"/>
<path d="M334.89 23.5401C335.13 23.5401 335.37 23.4901 335.6 23.4001C335.82 23.3001 336.02 23.1601 336.19 22.9901C336.36 22.8101 336.49 22.6101 336.58 22.3801C336.66 22.1501 336.7 21.9101 336.69 21.6601C336.7 21.4201 336.66 21.1801 336.58 20.9501C336.49 20.7201 336.36 20.5201 336.19 20.3401C336.02 20.1701 335.82 20.0301 335.59 19.9401C335.37 19.8501 335.13 19.8001 334.88 19.8101C334.4 19.8001 333.94 19.9801 333.6 20.3101C333.26 20.6401 333.06 21.0901 333.05 21.5701V21.6701C333.05 21.9201 333.08 22.1601 333.17 22.3901C333.26 22.6201 333.4 22.8301 333.57 23.0001C333.74 23.1801 333.95 23.3201 334.18 23.4101C334.41 23.5001 334.65 23.5501 334.89 23.5501V23.5401ZM334.89 18.8601C336.51 18.8601 337.82 20.0501 337.82 21.6601C337.82 22.4101 337.51 23.1301 336.98 23.6501C336.45 24.1801 335.73 24.4701 334.98 24.4701C334.62 24.4901 334.27 24.4301 333.94 24.2901C333.6 24.1601 333.3 23.9501 333.06 23.6801H333V27.7601H331.93V22.1101C331.93 20.1201 333.07 18.8501 334.89 18.8501" fill="white"/>
<path d="M341.78 23.5298C342.15 23.5298 342.51 23.4298 342.81 23.2198C343.11 23.0098 343.35 22.7199 343.47 22.3799C343.56 22.1499 343.6 21.9099 343.59 21.6699C343.59 21.4299 343.56 21.1798 343.47 20.9598C343.38 20.7298 343.25 20.5199 343.08 20.3499C342.91 20.1799 342.71 20.0399 342.48 19.9399C342.25 19.8499 342.01 19.7999 341.77 19.7999C341.53 19.7999 341.28 19.8499 341.06 19.9399C340.84 20.0399 340.63 20.1799 340.46 20.3499C340.29 20.5299 340.16 20.7298 340.07 20.9598C339.98 21.1898 339.94 21.4299 339.95 21.6699C339.94 21.9099 339.98 22.1599 340.06 22.3899C340.15 22.6199 340.28 22.8299 340.45 22.9999C340.62 23.1799 340.82 23.3199 341.05 23.4099C341.28 23.4999 341.52 23.5499 341.76 23.5499L341.78 23.5298ZM338.82 21.6699C338.82 20.0499 340.17 18.8599 341.78 18.8599C343.39 18.8599 344.74 20.0499 344.74 21.6699C344.74 23.2899 343.39 24.4799 341.78 24.4799C340.17 24.4799 338.82 23.2899 338.82 21.6699Z" fill="white"/>
<path d="M348.7 24.4701C347 24.4701 345.72 23.3001 345.72 21.6601C345.72 20.0201 346.98 18.8501 348.65 18.8501C349.95 18.8501 351.16 19.5501 351.46 20.9001H350.36C350.23 20.5701 350 20.2801 349.7 20.0901C349.4 19.9001 349.05 19.8001 348.69 19.8301C348.44 19.8301 348.2 19.8701 347.97 19.9601C347.74 20.0501 347.54 20.1901 347.36 20.3701C347.19 20.5501 347.06 20.7601 346.97 20.9901C346.88 21.2201 346.85 21.4701 346.86 21.7201C346.85 21.9601 346.89 22.2101 346.98 22.4401C347.07 22.6701 347.21 22.8801 347.38 23.0501C347.56 23.2201 347.77 23.3401 348 23.4301C348.23 23.5201 348.47 23.5601 348.72 23.5501C349.08 23.5701 349.44 23.4801 349.75 23.2701C350.05 23.0701 350.28 22.7701 350.4 22.4301H351.51C351.35 23.0401 350.98 23.5801 350.47 23.9501C349.96 24.3201 349.34 24.5101 348.71 24.4901" fill="white"/>
<path d="M355.5 23.7097L353.73 19.9897H353.7V24.3597H352.66V18.9697H354.32L356.07 22.6597H356.11L357.86 18.9797H359.52V24.3597H358.48V19.9897H358.44L356.69 23.6998L355.5 23.7097Z" fill="white"/>
<path d="M363.63 23.5298C363.87 23.5298 364.12 23.4898 364.34 23.3998C364.56 23.3098 364.77 23.1699 364.94 22.9899C365.11 22.8199 365.24 22.6099 365.33 22.3799C365.42 22.1499 365.46 21.9099 365.44 21.6699C365.45 21.4299 365.41 21.1798 365.32 20.9598C365.23 20.7298 365.1 20.5199 364.93 20.3499C364.76 20.1699 364.56 20.0399 364.33 19.9399C364.11 19.8499 363.86 19.7999 363.62 19.7999C363.38 19.7999 363.13 19.8499 362.91 19.9399C362.69 20.0399 362.48 20.1799 362.31 20.3499C362.14 20.5299 362.01 20.7298 361.92 20.9598C361.84 21.1898 361.8 21.4299 361.8 21.6699C361.79 21.9099 361.83 22.1599 361.91 22.3899C361.99 22.6199 362.12 22.8299 362.29 23.0099C362.46 23.1899 362.66 23.3299 362.89 23.4299C363.12 23.5199 363.36 23.5699 363.6 23.5699V23.5399L363.63 23.5298ZM360.67 21.6699C360.67 20.0499 362.02 18.8599 363.63 18.8599C365.24 18.8599 366.59 20.0599 366.59 21.6699C366.59 23.2799 365.24 24.4799 363.63 24.4799C362.02 24.4799 360.67 23.2899 360.67 21.6699Z" fill="white"/>
<path d="M367.11 24.4001V23.2902H367.13C367.25 23.2902 367.36 23.2702 367.47 23.2202C367.58 23.1702 367.68 23.1102 367.76 23.0202C367.96 22.7902 368.05 22.3902 368.17 21.8102L368.33 20.9502C368.51 19.9602 368.87 18.9502 370.35 18.9502H372.46V24.3602H371.38V19.9702H370.54C369.7 19.9702 369.52 20.2002 369.32 21.3502L369.16 22.1501C369.04 22.8901 368.85 23.5302 368.47 23.9402C368.31 24.1002 368.11 24.2302 367.9 24.3202C367.69 24.4002 367.45 24.4402 367.23 24.4302H367.12L367.11 24.4001Z" fill="white"/>
<path d="M376.6 23.5298C376.84 23.5298 377.08 23.4898 377.31 23.3998C377.53 23.2998 377.73 23.1699 377.89 22.9899C378.06 22.8199 378.19 22.6099 378.28 22.3799C378.37 22.1499 378.41 21.9099 378.39 21.6699C378.4 21.4299 378.36 21.1798 378.27 20.9598C378.19 20.7298 378.05 20.5199 377.88 20.3499C377.63 20.0899 377.3 19.9099 376.94 19.8299C376.58 19.7599 376.21 19.7899 375.87 19.9399C375.65 20.0399 375.45 20.1799 375.28 20.3499C375.11 20.5299 374.98 20.7298 374.9 20.9598C374.81 21.1898 374.78 21.4299 374.78 21.6699C374.77 21.9099 374.8 22.1599 374.89 22.3899C374.97 22.6199 375.11 22.8299 375.28 23.0099C375.44 23.1899 375.64 23.3299 375.86 23.4199C376.09 23.5099 376.33 23.5599 376.57 23.5599V23.5399L376.6 23.5298ZM373.64 21.6699C373.64 20.0499 374.99 18.8599 376.6 18.8599C378.21 18.8599 379.55 20.0499 379.55 21.6699C379.55 22.0499 379.46 22.4199 379.31 22.7699C379.16 23.1199 378.94 23.4299 378.66 23.6899C378.39 23.9499 378.06 24.1599 377.71 24.2899C377.36 24.4299 376.98 24.4899 376.6 24.4799C375 24.4799 373.64 23.2899 373.64 21.6699Z" fill="white"/>
<path d="M384.29 23.3799V19.9299H383.28C382.63 19.9299 382.4 20.4499 382.27 20.9999L382.04 22.0399C381.96 22.4999 381.78 22.9299 381.5 23.2999V23.3799H384.28H384.29ZM380.79 25.6699H379.75V23.3599H380.45C380.77 23.0199 380.93 22.4999 381.07 21.8699L381.3 20.8699C381.52 19.9099 381.93 18.9399 383.27 18.9399H385.36V23.3599H386.14V25.6699H385.1V24.3599H380.79V25.6699Z" fill="white"/>
<path d="M390.46 17H391.57V18.12H390.46V17ZM391.59 21.15C391.52 20.75 391.3 20.39 390.98 20.14C390.66 19.89 390.26 19.77 389.85 19.79C389.44 19.77 389.04 19.9 388.71 20.15C388.38 20.4 388.15 20.75 388.06 21.15H391.58H391.59ZM388.04 17H389.15V18.12H388.04V17ZM389.9 24.48C388.18 24.48 386.94 23.31 386.94 21.67C386.94 20.03 388.2 18.86 389.87 18.86C391.16 18.86 392.72 19.71 392.72 21.76V21.99H388.02C388.13 22.89 388.83 23.54 389.91 23.54C390.54 23.54 391.3 23.31 391.5 22.76H392.59C392.27 23.94 391.02 24.48 389.91 24.48" fill="white"/>
<path d="M397.79 18.9797V21.1097H398.69L399.97 18.9797H401.14L399.57 21.5497L401.28 24.3698H400.07L398.73 22.0997H397.81V24.3698H396.79V22.0897H395.87L394.51 24.3597H393.3L395.01 21.5397L393.43 18.9697H394.6L395.87 21.1198H396.77V18.9797H397.79Z" fill="white"/>
<path d="M404.64 23.53C404.83 23.54 405.03 23.51 405.21 23.44C405.39 23.37 405.56 23.27 405.69 23.13C405.83 23 405.94 22.83 406.01 22.65C406.08 22.47 406.12 22.28 406.12 22.08C406.12 21.79 406.05 21.5 405.89 21.26C405.73 21.01 405.51 20.82 405.24 20.7C404.97 20.58 404.68 20.55 404.39 20.6C404.2 20.61 404.01 20.67 403.84 20.75C403.67 20.84 403.51 20.96 403.39 21.1C403.26 21.25 403.17 21.42 403.11 21.6C403.05 21.78 403.03 21.98 403.04 22.17C403.05 22.36 403.11 22.55 403.19 22.72C403.28 22.89 403.4 23.05 403.54 23.17C403.69 23.3 403.86 23.39 404.04 23.45C404.22 23.51 404.42 23.53 404.61 23.52H404.64V23.53ZM402.04 21.94L402.02 18.98H403.11V20.5H403.14C403.35 20.24 403.61 20.03 403.91 19.89C404.21 19.75 404.54 19.68 404.87 19.69C405.18 19.69 405.5 19.74 405.79 19.85C406.08 19.97 406.35 20.14 406.57 20.36C406.79 20.58 406.97 20.84 407.09 21.13C407.21 21.42 407.27 21.73 407.27 22.05C407.27 23.43 406.17 24.49 404.67 24.49C404.33 24.5 403.99 24.45 403.66 24.33C403.34 24.21 403.05 24.02 402.8 23.78C402.55 23.54 402.36 23.26 402.22 22.94C402.09 22.62 402.02 22.28 402.02 21.94" fill="white"/>
<path d="M313.25 33.2098L302.59 26.8699V32.6899H299.71V21.7999L312.94 29.6799L326.53 18.1299V32.6899H323.65V24.3599L313.25 33.2098Z" fill="#FFCD00"/>
<path d="M259.16 27.8101H258.35V24.97C258.35 24.9 258.36 24.8201 258.39 24.7601C258.32 24.7901 258.24 24.8 258.16 24.79H256.8C256.72 24.79 256.64 24.7901 256.57 24.7601C256.6 24.8301 256.61 24.9 256.61 24.97V27.8101H255.81V24.04H259.15V27.8101H259.16Z" fill="white"/>
<path d="M260.9 25.9201C260.89 26.0801 260.91 26.2501 260.97 26.4001C261.02 26.5601 261.11 26.7002 261.23 26.8202C261.34 26.9402 261.48 27.0301 261.64 27.1001C261.8 27.1701 261.96 27.1901 262.12 27.1901C262.84 27.1901 263.25 26.7201 263.25 25.9301C263.25 25.1401 262.82 24.6701 262.12 24.6701C261.96 24.6701 261.8 24.7002 261.64 24.7602C261.48 24.8202 261.35 24.9201 261.24 25.0301C261.12 25.1501 261.04 25.2902 260.98 25.4502C260.92 25.6002 260.9 25.7701 260.91 25.9301L260.9 25.9201ZM264.1 25.9201C264.1 27.0901 263.34 27.9201 262.28 27.9201C261.99 27.9301 261.71 27.8602 261.46 27.7002C261.21 27.5502 261.02 27.3301 260.9 27.0601H260.86C260.92 27.3201 260.94 27.5801 260.94 27.8501V29.4101H260.13V24.0301H260.91C260.91 24.2701 260.91 24.5101 260.86 24.7501H260.89C261.01 24.4901 261.21 24.2701 261.46 24.1201C261.71 23.9701 261.99 23.9001 262.28 23.9101C263.34 23.9101 264.1 24.7401 264.1 25.9101" fill="white"/>
<path d="M265.44 25.9202C265.44 26.0802 265.46 26.2402 265.51 26.3902C265.57 26.5402 265.66 26.6802 265.77 26.7902C265.89 26.9102 266.02 26.9902 266.17 27.0502C266.32 27.1102 266.49 27.1302 266.65 27.1202C266.81 27.1302 266.97 27.1102 267.12 27.0502C267.27 26.9902 267.41 26.9002 267.52 26.7902C267.63 26.6802 267.72 26.5402 267.78 26.3902C267.84 26.2402 267.86 26.0802 267.85 25.9202C267.86 25.7602 267.84 25.5902 267.78 25.4402C267.69 25.2102 267.53 25.0102 267.33 24.8702C267.13 24.7302 266.89 24.6602 266.64 24.6602C266.39 24.6602 266.15 24.7302 265.95 24.8702C265.75 25.0102 265.59 25.2102 265.5 25.4402C265.44 25.5902 265.41 25.7502 265.43 25.9202M268.7 25.9202C268.7 26.1902 268.65 26.4602 268.55 26.7002C268.45 26.9502 268.29 27.1702 268.1 27.3602C267.91 27.5502 267.68 27.7002 267.43 27.8002C267.18 27.9002 266.91 27.9402 266.64 27.9302C266.37 27.9302 266.1 27.8902 265.85 27.8002C265.6 27.7102 265.37 27.5602 265.18 27.3702C264.99 27.1802 264.83 26.9602 264.73 26.7102C264.62 26.4602 264.57 26.2002 264.57 25.9302C264.57 25.5302 264.69 25.1302 264.93 24.8002C265.16 24.4702 265.48 24.2102 265.86 24.0602C266.11 23.9602 266.38 23.9202 266.65 23.9302C266.92 23.9202 267.19 23.9602 267.44 24.0602C267.69 24.1602 267.92 24.3002 268.11 24.4902C268.3 24.6802 268.45 24.9002 268.55 25.1502C268.65 25.4002 268.7 25.6702 268.69 25.9302H268.7V25.9202Z" fill="white"/>
<path d="M270.03 25.5399V25.5599C270.18 25.4899 270.35 25.4599 270.52 25.4699H271.45C271.84 25.4699 271.97 25.4899 272.05 25.5399V25.52C272.05 25.4 272.02 25.2799 271.98 25.1699C271.93 25.0599 271.85 24.9599 271.76 24.8799C271.67 24.7999 271.56 24.74 271.44 24.7C271.32 24.66 271.2 24.6499 271.07 24.6599C270.81 24.6399 270.56 24.73 270.36 24.89C270.16 25.06 270.04 25.2899 270.01 25.5499H270.02L270.03 25.5399ZM272.92 25.9199V26.08H270.5C270.33 26.1 270.16 26.08 270.01 26.02H269.99L270.02 26.1299C270.02 26.2799 270.06 26.4199 270.12 26.5499C270.18 26.6799 270.27 26.7999 270.38 26.8999C270.49 26.9999 270.62 27.0699 270.76 27.1199C270.9 27.1699 271.04 27.1899 271.19 27.1799C271.41 27.1799 271.63 27.1299 271.82 27.0299C272.02 26.9299 272.19 26.7899 272.33 26.6199L272.82 27.1599C272.63 27.4099 272.38 27.6099 272.09 27.7399C271.81 27.8799 271.5 27.9399 271.18 27.9399C270.92 27.9499 270.66 27.9099 270.41 27.8199C270.16 27.7299 269.94 27.5799 269.75 27.3999C269.57 27.2099 269.42 26.9899 269.33 26.7399C269.24 26.4899 269.2 26.2299 269.22 25.9699C269.22 24.7499 269.98 23.9399 271.13 23.9399C272.28 23.9399 272.92 24.6899 272.92 25.9299" fill="white"/>
<path d="M275.75 27.33L275.56 26.66C275.46 26.28 275.33 26.15 275.02 26.15H274.67C274.58 26.15 274.5 26.15 274.41 26.13C274.44 26.24 274.46 26.36 274.45 26.47V27.8H273.64V24.03H274.45V25.2C274.45 25.31 274.45 25.42 274.41 25.53C274.5 25.53 274.58 25.53 274.67 25.53H275.02C275.34 25.53 275.42 25.46 275.56 25.07L275.83 24.4C275.94 24.13 276.16 24.02 276.56 24.02H276.96V24.74H276.82C276.73 24.73 276.63 24.74 276.55 24.8C276.47 24.85 276.42 24.93 276.4 25.03L276.26 25.36C276.15 25.68 275.9 25.82 275.46 25.82V25.85C275.93 25.85 276.16 26 276.26 26.34L276.42 26.88C276.48 27.08 276.54 27.11 276.8 27.11H277.01V27.8H276.54C276.11 27.82 275.87 27.67 275.77 27.33" fill="white"/>
<path d="M280.89 24.04V24.78H279.72C279.64 24.78 279.56 24.7801 279.49 24.7501C279.52 24.8201 279.53 24.89 279.53 24.96V27.8101H278.7V24.97C278.7 24.9 278.7 24.8301 278.74 24.7601C278.67 24.7901 278.59 24.8 278.51 24.79H277.34V24.05H280.88L280.89 24.04Z" fill="white"/>
<path d="M284.51 25.9199C284.5 26.0899 284.52 26.2499 284.58 26.4099C284.64 26.5699 284.72 26.71 284.84 26.83C284.95 26.95 285.09 27.0499 285.24 27.1199C285.39 27.1899 285.56 27.2199 285.72 27.2199C285.88 27.2199 286.05 27.1899 286.2 27.1199C286.35 27.0499 286.49 26.9599 286.6 26.8399C286.71 26.7199 286.8 26.5699 286.85 26.4199C286.91 26.2599 286.93 26.0999 286.92 25.9299C286.92 25.6199 286.79 25.3299 286.58 25.1099C286.37 24.8899 286.08 24.7599 285.77 24.7399C285.47 24.7199 285.16 24.82 284.93 25.02C284.69 25.21 284.54 25.4899 284.5 25.7899C284.5 25.8299 284.5 25.8699 284.5 25.9199H284.51ZM287.78 25.9199C287.78 26.3299 287.68 26.7299 287.46 27.0699C287.24 27.4099 286.92 27.6799 286.55 27.8499C286.18 28.0099 285.76 28.0599 285.36 27.9899C284.96 27.9199 284.59 27.7299 284.3 27.4399C284.01 27.1599 283.81 26.79 283.73 26.39C283.65 25.99 283.69 25.58 283.84 25.2C283.99 24.82 284.26 24.5 284.59 24.27C284.93 24.04 285.33 23.9199 285.73 23.9199C286 23.9199 286.26 23.9599 286.51 24.0499C286.76 24.1499 287 24.2899 287.19 24.4799C287.38 24.6699 287.53 24.89 287.63 25.14C287.73 25.39 287.78 25.6499 287.77 25.9199" fill="white"/>
<path d="M291.59 24.04V24.78H290.42C290.34 24.78 290.26 24.7801 290.19 24.7501C290.22 24.8201 290.23 24.89 290.23 24.96V27.8101H289.42V24.97C289.42 24.9 289.43 24.8301 289.46 24.7601C289.39 24.7901 289.31 24.8 289.23 24.79H288.04V24.05H291.59V24.04Z" fill="white"/>
<path d="M60.98 19.8182H65.0928V9.27335H63.2991L63.1481 12.4138C63.1119 13.5342 63.0183 14.4884 62.9247 15.2735C62.8129 16.0586 62.7012 16.6928 62.5502 17.2001C62.3993 17.7044 62.2513 18.115 62.0822 18.4351C61.9131 18.7522 61.7259 19.0149 61.5386 19.2022C61.3514 19.4075 61.1642 19.5947 60.977 19.7819V19.8182H60.98ZM58.0448 24.4927V19.8182H58.5491C58.7907 19.6883 59.0172 19.5192 59.2225 19.2958C59.446 19.0723 59.6332 18.7915 59.8023 18.417C59.9714 18.0607 60.1375 17.5957 60.2885 17.0159C60.4395 16.4542 60.5693 15.7446 60.681 14.9413C60.7928 14.12 60.8683 13.1476 60.9438 12.0243L61.2608 7.42529H67.5599V19.8182H69.0547V24.4927H67.2429L67.0919 21.6693H60.0831L59.914 24.4927H58.0448Z" fill="white"/>
<path d="M70.48 21.6517V7.42285H76.462V9.25582H73.0769V13.3505H75.7312V15.1624H73.0769V19.8731H76.4801V21.6698H70.4588L70.48 21.6517Z" fill="white"/>
<path d="M78.0293 21.6517V7.42285H80.6081V13.3868H83.507V7.42285H86.104V21.6698H83.507V15.2379H80.6081V21.6698H78.0293V21.6517Z" fill="white"/>
<path d="M90.9083 19.8937H91.4307C91.935 19.8937 92.3276 19.8182 92.6265 19.6883C92.9255 19.5373 93.1489 19.2958 93.2818 18.9394C93.4328 18.5831 93.4871 18.0969 93.4871 17.4628C93.4871 16.735 93.318 16.1553 93.0372 15.7808C92.7564 15.3883 92.1947 15.201 91.3733 15.201H90.8872V19.8937H90.9053H90.9083ZM88.3295 21.6511V7.42529H90.9083V13.4073H91.5425C92.4967 13.4073 93.2999 13.5372 93.9552 13.7999C94.6105 14.0626 95.0755 14.4914 95.4137 15.1074C95.7489 15.7053 95.8999 16.5267 95.8999 17.5383C95.8999 18.3415 95.8063 18.9968 95.6009 19.5373C95.3956 20.0779 95.0966 20.4916 94.7041 20.8086C94.3115 21.1257 93.8435 21.3522 93.2848 21.482C92.7413 21.6119 92.1071 21.6692 91.4156 21.6692H88.3114L88.3295 21.6511Z" fill="white"/>
<path d="M62.6831 42.943C61.6353 42.943 60.8139 42.7377 60.2341 42.327C59.6362 41.9163 59.2255 41.3547 58.9991 40.645C58.7756 39.9354 58.6427 39.111 58.6427 38.196V33.1109C58.6427 32.1385 58.7545 31.299 58.9991 30.5864C59.2406 29.8768 59.6543 29.3151 60.2341 28.9406C60.832 28.5481 61.6353 28.3608 62.6831 28.3608C63.6736 28.3608 64.4406 28.53 65.0022 28.8651C65.5639 29.2003 65.9565 29.6684 66.1799 30.3055C66.4034 30.9216 66.5362 31.6523 66.5362 32.4737V33.6695H64.0299V32.4344C64.0299 32.0419 64.0118 31.6674 63.9725 31.3504C63.9363 31.0152 63.8215 30.7706 63.6373 30.5652C63.4501 30.3599 63.133 30.2663 62.7012 30.2663C62.2694 30.2663 61.9342 30.3599 61.7289 30.5652C61.5235 30.7706 61.3937 31.0514 61.3363 31.3866C61.2789 31.7429 61.2427 32.1143 61.2427 32.5643V38.7517C61.2427 39.2741 61.2789 39.6878 61.3725 40.023C61.448 40.3582 61.596 40.6027 61.8225 40.7718C62.0459 40.941 62.3268 41.0346 62.7012 41.0346C63.13 41.0346 63.4501 40.9228 63.6162 40.7356C63.8034 40.5303 63.9151 40.2494 63.9514 39.9142C63.9876 39.5791 64.0269 39.1865 64.0269 38.7728V37.4834H66.5332V38.6248C66.5332 39.4673 66.4215 40.2132 66.198 40.8685C65.9746 41.5238 65.582 42.028 65.0204 42.4025C64.4587 42.7769 63.6736 42.9642 62.665 42.9642L62.6831 42.946V42.943Z" fill="white"/>
<path d="M72.6059 42.7557V28.5117H80.8134V42.7557H78.2527V30.3628H75.1666V42.7557H72.6059Z" fill="white"/>
<path d="M85.5634 34.6055H86.5539C87.0219 34.6055 87.3964 34.53 87.6561 34.4001C87.9188 34.2703 88.106 34.0438 88.1996 33.7449C88.2932 33.4459 88.3506 33.0534 88.3506 32.5491C88.3506 32.0448 88.3144 31.613 88.2389 31.2959C88.1634 30.9788 87.9973 30.7342 87.7527 30.5863C87.49 30.4353 87.0974 30.3628 86.575 30.3628H85.5845V34.6236L85.5664 34.6055H85.5634ZM82.9634 42.7557V28.5117H87.1518C88.0124 28.5117 88.7039 28.6627 89.2263 28.9798C89.7699 29.2969 90.1624 29.7649 90.404 30.3628C90.6456 30.9607 90.7784 31.6915 90.7784 32.5491C90.7784 33.4852 90.6275 34.2311 90.3104 34.7927C89.9933 35.3544 89.5434 35.7832 88.9817 36.0278C88.4201 36.2905 87.7467 36.4203 86.9615 36.4203H85.5604V42.7587H82.9604L82.9634 42.7557Z" fill="white"/>
<path d="M92.237 42.7557V28.5117H98.219V30.3417H94.8339V34.4364H97.4883V36.2512H94.8339V40.962H98.2371V42.7557H92.2159H92.237Z" fill="white"/>
<path d="M101.885 40.9046H105.998V30.3809H104.204L104.053 33.5214C104.017 34.6417 103.923 35.596 103.83 36.3811C103.718 37.1662 103.606 37.8003 103.455 38.3077C103.304 38.8119 103.156 39.2226 102.987 39.5427C102.818 39.8598 102.631 40.1225 102.444 40.3097C102.256 40.5151 102.069 40.7023 101.882 40.8895V40.9076L101.885 40.9046ZM98.9498 45.5791V40.9046H99.4541C99.6956 40.7748 99.9221 40.6056 100.127 40.3822C100.351 40.1587 100.538 39.8779 100.707 39.5035C100.876 39.1471 101.042 38.6821 101.193 38.1023C101.344 37.5406 101.474 36.831 101.586 36.0278C101.698 35.2064 101.773 34.2341 101.849 33.1107L102.166 28.5117H108.465V40.9046H109.96V45.5791H108.148L107.997 42.7557H100.988L100.819 45.5791H98.9498Z" fill="white"/>
<path d="M111.379 42.7557V28.5117H119.586V42.7557H117.026V30.3628H113.94V42.7557H111.379Z" fill="white"/>
<path d="M124.336 34.6055H125.327C125.795 34.6055 126.169 34.53 126.429 34.4001C126.692 34.2703 126.879 34.0438 126.973 33.7449C127.066 33.4459 127.124 33.0534 127.124 32.5491C127.124 32.0448 127.087 31.613 127.012 31.2959C126.936 30.9788 126.77 30.7342 126.526 30.5863C126.263 30.4353 125.87 30.3628 125.348 30.3628H124.358V34.6236L124.339 34.6055H124.336ZM121.737 42.7557V28.5117H125.925C126.785 28.5117 127.477 28.6627 127.999 28.9798C128.543 29.2969 128.935 29.7649 129.177 30.3628C129.419 30.9607 129.552 31.6915 129.552 32.5491C129.552 33.4852 129.401 34.2311 129.083 34.7927C128.766 35.3544 128.316 35.7832 127.755 36.0278C127.193 36.2905 126.52 36.4203 125.735 36.4203H124.333V42.7587H121.733L121.737 42.7557Z" fill="white"/>
<path d="M131.025 42.7557V28.5117H133.157V37.5014L137.065 28.5117H138.804V42.7557H136.654V33.6331L132.728 42.7557H131.025Z" fill="white"/>
<path d="M141.011 42.7557V28.5117H143.59V34.4726H146.489V28.5117H149.086V42.7557H146.489V36.3237H143.59V42.7557H141.011Z" fill="white"/>
<path d="M151.312 42.7557V28.5117H153.443V37.5014L157.351 28.5117H159.087V42.7557H156.937V33.6331L153.012 42.7557H151.312Z" fill="white"/>
<path d="M161.234 42.7557L161.479 28.5117H164.169L166.19 38.3801L168.3 28.5117H170.9L171.163 42.7557H169.237L169.031 32.8662L167.011 42.7557H165.441L163.384 32.8299L163.197 42.7557H161.255H161.234Z" fill="white"/>
<path d="M175.838 37.8215H177.764L176.792 31.8394L175.819 37.8215H175.838ZM172.546 42.7557L175.388 28.5117H178.172L181.013 42.7557H178.601L178.039 39.4642H175.554L174.974 42.7557H172.525H172.543H172.546Z" fill="white"/>
<path d="M183.538 42.7561V30.4357H181.276V28.5303H188.381V30.4357H186.156V42.7561H183.559H183.538Z" fill="white"/>
<path d="M189.671 42.7557V28.5117H195.653V30.3417H192.271V34.4364H194.925V36.2512H192.271V40.962H195.671V42.7557H189.653H189.671Z" fill="white"/>
<path d="M196.215 42.7557V40.8865C196.55 40.8865 196.813 40.8865 197.057 40.8291C197.299 40.7718 197.486 40.66 197.637 40.4728C197.788 40.2856 197.918 39.9866 198.029 39.5941C198.141 39.2015 198.217 38.6791 198.292 38.0057C198.368 37.3323 198.443 36.4928 198.516 35.4631L198.966 28.5269H205.902V42.7708H203.323V30.4897H201.285L200.968 35.7983C200.892 36.8461 200.817 37.7611 200.726 38.5644C200.632 39.3676 200.503 40.041 200.315 40.6027C200.128 41.1643 199.887 41.6112 199.548 41.9494C199.213 42.2846 198.781 42.5292 198.241 42.6591C197.697 42.7889 197.027 42.8463 196.203 42.7889L196.221 42.7527L196.215 42.7557Z" fill="white"/>
<path d="M208.103 42.7557V28.5117H214.085V30.3417H210.7V34.4364H213.354V36.2512H210.7V40.962H214.103V42.7557H208.085H208.103Z" fill="white"/>
<path d="M215.58 42.7557L215.822 28.5117H218.515L220.532 38.3801L222.646 28.5117H225.243L225.506 42.7557H223.579L223.374 32.8662L221.357 42.7557H219.786L217.73 32.8299L217.543 42.7557H215.598H215.58Z" fill="white"/>
<path d="M23.442 29.4238L34.0985 47.7262L38.6553 45.0749L27.9987 26.7725L23.442 29.4238ZM19.5435 25.4619C21.1531 26.4252 22.4847 27.7811 23.442 29.4268L27.9957 26.7695C26.6006 24.3748 24.6408 22.3667 22.2492 20.9384L19.5435 25.4619ZM1.51589 14.6151L19.5375 25.4589L22.2552 20.9414L4.23363 10.0977L1.51589 14.6151ZM20.8964 23.2002L19.5375 25.4589V25.4619L20.8903 23.2002H20.8964Z" fill="#0044E4"/>
<path d="M26.8512 25.2872L39.0025 4.68678L34.4609 2.0083L22.3096 22.6087L26.8512 25.2872ZM21.0262 25.2661C22.3005 27.4765 25.5075 27.555 26.8482 25.2933L22.3126 22.6057C23.0555 21.3525 24.8794 21.3948 25.592 22.6329L21.0262 25.2661ZM9.51207 4.63243L21.0081 25.2329L25.6101 22.6631L14.1141 2.06265L9.51207 4.63243ZM24.5804 23.9495L26.8482 25.2933V25.2872L24.5774 23.9495H24.5804ZM23.3091 23.9495L21.0081 25.2329L21.0172 25.248L21.0262 25.2631L23.3091 23.9465V23.9495Z" fill="#0044E4"/>
<path d="M24.674 27.6877H49.0521V22.4153H24.674V27.6877ZM21.3101 24.3026C21.3101 26.0812 22.7203 27.6877 24.674 27.6877V22.4153C25.8064 22.4153 26.5795 23.3454 26.5795 24.3026H21.3071H21.3101ZM21.6483 0L21.3131 24.2634L26.5855 24.3358L26.9207 0.0724793L21.6483 0ZM23.9463 24.3026L21.3101 24.2664V24.2845V24.3026H23.9463Z" fill="#0044E4"/>
<path d="M23.7561 27.9658L44.4682 39.6128L47.0531 35.0168L26.3409 23.3698L23.7561 27.9658ZM23.7319 22.1136C21.4883 23.4091 21.4883 26.6553 23.7319 27.9507L26.3651 23.3849C27.6364 24.1187 27.6364 25.9456 26.3651 26.6794L23.7319 22.1136ZM44.438 10.0801L23.7259 22.1197L26.3741 26.6764L47.0863 14.6368L44.438 10.0801ZM25.0485 25.6678L23.7319 27.9507L23.744 27.9568L23.7561 27.9628L25.0485 25.6648V25.6678ZM25.0485 24.3965L26.3651 26.6794H26.3681L26.3711 26.6764L25.0455 24.3965H25.0485Z" fill="#0044E4"/>
<path d="M8.28004 44.3535L20.3015 32.5012L16.5993 28.7477L4.57788 40.6L8.28004 44.3535ZM15.8142 33.2984V49.2243H21.0866V33.2984H15.8142ZM15.778 33.2622C15.778 33.2622 15.787 33.2622 15.7901 33.2622C15.7901 33.2622 15.7901 33.2622 15.7931 33.2622C15.7931 33.2622 15.7991 33.2652 15.8051 33.2712C15.8112 33.2773 15.8142 33.2803 15.8142 33.2833C15.8142 33.2833 15.8142 33.2833 15.8142 33.2863C15.8142 33.2863 15.8142 33.2893 15.8142 33.2984H21.0866C21.0866 30.3663 18.7101 27.9897 15.778 27.9897V33.2622ZM0 33.2622H15.778V27.9897H0V33.2622Z" fill="#A5EC5F"/>
</svg>
