<svg width="570" height="125" viewBox="0 0 570 125" fill="none" xmlns="http://www.w3.org/2000/svg">
<path d="M154.136 50.0939H164.532V23.4403H159.998L159.616 31.3783C159.525 34.2101 159.288 36.6221 159.052 38.6066C158.769 40.5911 158.487 42.194 158.105 43.4763C157.724 44.751 157.35 45.789 156.922 46.5981C156.495 47.3995 156.021 48.0636 155.548 48.5368C155.075 49.0559 154.602 49.5291 154.129 50.0023V50.0939H154.136ZM146.717 61.9094V50.0939H147.992C148.602 49.7657 149.175 49.3383 149.694 48.7735C150.259 48.2086 150.732 47.4988 151.159 46.5523C151.587 45.6516 152.007 44.4762 152.388 43.0107C152.77 41.591 153.098 39.7973 153.381 37.767C153.663 35.6909 153.854 33.2331 154.045 30.3937L154.846 18.769H170.768V50.0939H174.546V61.9094H169.967L169.585 54.7728H151.869L151.442 61.9094H146.717Z" fill="black"/>
<path d="M178.149 54.7268V18.7612H193.269V23.3943H184.713V33.7444H191.422V38.324H184.713V50.2311H193.315V54.7726H178.095L178.149 54.7268Z" fill="black"/>
<path d="M197.231 54.7268V18.7612H203.749V33.836H211.077V18.7612H217.641V54.7726H211.077V38.5148H203.749V54.7726H197.231V54.7268Z" fill="black"/>
<path d="M229.785 50.2847H231.105C232.38 50.2847 233.372 50.0939 234.128 49.7657C234.883 49.3841 235.448 48.7735 235.784 47.8728C236.166 46.9721 236.303 45.7432 236.303 44.1404C236.303 42.3009 235.875 40.8354 235.166 39.8889C234.456 38.8966 233.036 38.4234 230.96 38.4234H229.731V50.2847H229.777H229.785ZM223.266 54.727V18.769H229.785V33.8896H231.387C233.799 33.8896 235.83 34.2178 237.486 34.8818C239.142 35.5459 240.318 36.6297 241.173 38.1868C242.02 39.6981 242.401 41.7742 242.401 44.3312C242.401 46.3615 242.165 48.0178 241.646 49.3841C241.127 50.7503 240.371 51.796 239.379 52.5975C238.387 53.3989 237.204 53.9714 235.792 54.2996C234.418 54.6278 232.815 54.7728 231.067 54.7728H223.22L223.266 54.727Z" fill="black"/>
<path d="M158.441 108.546C155.792 108.546 153.716 108.027 152.251 106.989C150.74 105.951 149.702 104.531 149.129 102.737C148.564 100.943 148.228 98.8597 148.228 96.5469V83.6934C148.228 81.2356 148.511 79.1137 149.129 77.3124C149.74 75.5187 150.785 74.099 152.251 73.1525C153.762 72.1603 155.792 71.687 158.441 71.687C160.945 71.687 162.883 72.1145 164.303 72.9617C165.723 73.809 166.715 74.992 167.28 76.6025C167.845 78.1596 168.18 80.0068 168.18 82.0829V85.1054H161.845V81.9837C161.845 80.9914 161.799 80.0449 161.7 79.2435C161.609 78.3962 161.319 77.778 160.853 77.259C160.38 76.7399 159.578 76.5033 158.487 76.5033C157.395 76.5033 156.548 76.7399 156.029 77.259C155.51 77.778 155.182 78.4878 155.037 79.3351C154.892 80.2357 154.8 81.1746 154.8 82.3119V97.9514C154.8 99.2719 154.892 100.318 155.128 101.165C155.319 102.012 155.693 102.63 156.266 103.058C156.831 103.485 157.54 103.722 158.487 103.722C159.571 103.722 160.38 103.439 160.8 102.966C161.273 102.447 161.555 101.737 161.647 100.89C161.738 100.043 161.838 99.0505 161.838 98.0048V94.7456H168.173V97.6308C168.173 99.7604 167.89 101.646 167.326 103.302C166.761 104.958 165.768 106.233 164.349 107.179C162.929 108.126 160.945 108.599 158.395 108.599L158.441 108.553V108.546Z" fill="black"/>
<path d="M183.522 108.072V72.0686H204.268V108.072H197.796V76.7475H189.995V108.072H183.522Z" fill="black"/>
<path d="M216.275 87.4716H218.778C219.961 87.4716 220.908 87.2807 221.564 86.9525C222.228 86.6243 222.701 86.0519 222.938 85.2962C223.175 84.5406 223.32 83.5483 223.32 82.2737C223.32 80.999 223.228 79.9075 223.037 79.106C222.846 78.3046 222.427 77.6864 221.808 77.3124C221.144 76.9307 220.152 76.7475 218.831 76.7475H216.328V87.5174L216.282 87.4716H216.275ZM209.703 108.072V72.0686H220.289C222.465 72.0686 224.213 72.4503 225.533 73.2517C226.907 74.0532 227.899 75.2362 228.51 76.7475C229.12 78.2588 229.456 80.106 229.456 82.2737C229.456 84.6398 229.075 86.5251 228.273 87.9448C227.472 89.3645 226.335 90.4483 224.915 91.0666C223.495 91.7306 221.793 92.0588 219.808 92.0588H216.267V108.08H209.695L209.703 108.072Z" fill="black"/>
<path d="M233.143 108.072V72.0686H248.263V76.6941H239.707V87.0441H246.416V91.6314H239.707V103.539H248.309V108.072H233.09H233.143Z" fill="black"/>
<path d="M257.53 103.394H267.925V76.7933H263.392L263.01 84.7314C262.918 87.5631 262.682 89.9751 262.445 91.9596C262.163 93.9441 261.88 95.547 261.499 96.8293C261.117 98.104 260.743 99.1421 260.316 99.9511C259.888 100.753 259.415 101.417 258.942 101.89C258.468 102.409 257.995 102.882 257.522 103.355V103.401L257.53 103.394ZM250.111 115.209V103.394H251.385C251.996 103.065 252.568 102.638 253.087 102.073C253.652 101.508 254.125 100.798 254.553 99.8519C254.98 98.9512 255.4 97.7758 255.782 96.3103C256.163 94.8906 256.492 93.0969 256.774 91.0666C257.056 88.9905 257.247 86.5327 257.438 83.6933L258.239 72.0686H274.161V103.394H277.94V115.209H273.36L272.978 108.072H255.263L254.835 115.209H250.111Z" fill="black"/>
<path d="M281.527 108.072V72.0686H302.273V108.072H295.8V76.7475H288V108.072H281.527Z" fill="black"/>
<path d="M314.279 87.4716H316.783C317.966 87.4716 318.912 87.2807 319.569 86.9525C320.233 86.6243 320.706 86.0519 320.943 85.2962C321.179 84.5406 321.324 83.5483 321.324 82.2737C321.324 80.999 321.233 79.9075 321.042 79.106C320.851 78.3046 320.431 77.6864 319.813 77.3124C319.149 76.9307 318.157 76.7475 316.836 76.7475H314.333V87.5174L314.287 87.4716H314.279ZM307.707 108.072V72.0686H318.294C320.469 72.0686 322.217 72.4503 323.538 73.2517C324.912 74.0532 325.904 75.2362 326.515 76.7475C327.125 78.2588 327.461 80.106 327.461 82.2737C327.461 84.6398 327.079 86.5251 326.278 87.9448C325.477 89.3645 324.339 90.4483 322.92 91.0666C321.5 91.7306 319.798 92.0588 317.813 92.0588H314.272V108.08H307.7L307.707 108.072Z" fill="black"/>
<path d="M331.186 108.072V72.0686H336.575V94.7914L346.451 72.0686H350.848V108.072H345.413V85.0138L335.491 108.072H331.186Z" fill="black"/>
<path d="M356.427 108.072V72.0686H362.946V87.1357H370.273V72.0686H376.837V108.072H370.273V91.8146H362.946V108.072H356.427Z" fill="black"/>
<path d="M382.463 108.072V72.0686H387.852V94.7914L397.728 72.0686H402.117V108.072H396.683V85.0138L386.76 108.072H382.463Z" fill="black"/>
<path d="M407.544 108.072L408.162 72.0686H414.963L420.069 97.0125L425.405 72.0686H431.977L432.641 108.072H427.771L427.252 83.0751L422.146 108.072H418.177L412.979 82.9835L412.505 108.072H407.598H407.544Z" fill="black"/>
<path d="M444.456 95.6004H449.326L446.868 80.4799L444.41 95.6004H444.456ZM436.136 108.072L443.319 72.0686H450.356L457.539 108.072H451.44L450.02 99.7527H443.739L442.273 108.072H436.083H436.129H436.136Z" fill="black"/>
<path d="M463.92 108.072V76.9306H458.203V72.1143H476.163V76.9306H470.537V108.072H463.973H463.92Z" fill="black"/>
<path d="M479.422 108.072V72.0686H494.542V76.6941H485.994V87.0441H492.703V91.6314H485.994V103.539H494.588V108.072H479.376H479.422Z" fill="black"/>
<path d="M495.962 108.073V103.348C496.809 103.348 497.473 103.348 498.092 103.203C498.702 103.058 499.176 102.775 499.557 102.302C499.939 101.829 500.267 101.073 500.549 100.081C500.832 99.0887 501.023 97.7683 501.213 96.0662C501.404 94.3641 501.595 92.2422 501.778 89.6394L502.916 72.1069H520.448V108.111H513.93V77.0682H508.778L507.976 90.4866C507.785 93.1352 507.594 95.4479 507.365 97.4783C507.129 99.5086 506.801 101.211 506.327 102.63C505.854 104.05 505.244 105.18 504.389 106.035C503.541 106.882 502.45 107.5 501.084 107.828C499.71 108.156 498.015 108.302 495.932 108.156L495.977 108.065L495.962 108.073Z" fill="black"/>
<path d="M526.012 108.072V72.0686H541.133V76.6941H532.577V87.0441H539.286V91.6314H532.577V103.539H541.179V108.072H525.967H526.012Z" fill="black"/>
<path d="M544.911 108.072L545.522 72.0686H552.33L557.429 97.0125L562.772 72.0686H569.336L570 108.072H565.13L564.611 83.0751L559.513 108.072H555.544L550.346 82.9835L549.872 108.072H544.957H544.911Z" fill="black"/>
<path d="M59.2532 74.3736L86.1892 120.636L97.7071 113.934L70.771 67.6721L59.2532 74.3736ZM49.3993 64.3595C53.4676 66.7943 56.8336 70.2214 59.2532 74.3813L70.7634 67.6645C67.2371 61.6117 62.2834 56.5359 56.2382 52.9256L49.3993 64.3595ZM3.83165 36.9426L49.384 64.3518L56.2535 52.9332L10.7011 25.5239L3.83165 36.9426ZM52.8188 58.6425L49.384 64.3518V64.3595L52.8035 58.6425H52.8188Z" fill="#0044E4"/>
<path d="M67.8706 63.9169L98.5849 11.8462L87.1052 5.07593L56.3909 57.1467L67.8706 63.9169ZM53.147 63.8635C56.368 69.4507 64.474 69.6491 67.863 63.9322L56.3985 57.139C58.2762 53.9714 62.8864 54.0783 64.6877 57.2077L53.147 63.8635ZM24.0432 11.7088L53.1012 63.7795L64.7335 57.284L35.6756 5.21331L24.0432 11.7088ZM62.1307 60.5356L67.863 63.9322V63.9169L62.1231 60.5356H62.1307ZM58.9174 60.5356L53.1012 63.7795L53.1241 63.8177L53.147 63.8559L58.9174 60.528V60.5356Z" fill="#0044E4"/>
<path d="M62.3674 69.9849H123.987V56.658H62.3674V69.9849ZM53.8645 61.4285C53.8645 65.9242 57.429 69.9849 62.3674 69.9849V56.658C65.2297 56.658 67.1836 59.0089 67.1836 61.4285H53.8568H53.8645ZM54.7193 0L53.8721 61.3293L67.1989 61.5125L68.0461 0.183202L54.7193 0ZM60.5279 61.4285L53.8645 61.3369V61.3827V61.4285H60.5279Z" fill="#0044E4"/>
<path d="M60.047 70.6871L112.4 100.127L118.934 88.5097L66.5806 59.0701L60.047 70.6871ZM59.9859 55.8948C54.3148 59.1693 54.3148 67.3745 59.9859 70.649L66.6417 59.1082C69.8551 60.963 69.8551 65.5809 66.6417 67.4356L59.9859 55.8948ZM112.324 25.4783L59.9707 55.9101L66.6646 67.428L119.018 36.9961L112.324 25.4783ZM63.3138 64.8786L59.9859 70.649L60.0165 70.6643L60.047 70.6796L63.3138 64.871V64.8786ZM63.3138 61.6653L66.6417 67.4356H66.6494L66.657 67.428L63.3062 61.6653H63.3138Z" fill="#0044E4"/>
<path d="M20.9291 112.11L51.3151 82.1514L41.9573 72.6639L11.5713 102.622L20.9291 112.11ZM39.9728 84.1665V124.422H53.2996V84.1665H39.9728ZM39.8812 84.0749C39.8812 84.0749 39.9041 84.0749 39.9118 84.0749C39.9118 84.0749 39.9118 84.0749 39.9194 84.0749C39.9194 84.0749 39.9347 84.0825 39.9499 84.0978C39.9652 84.113 39.9728 84.1207 39.9728 84.1283C39.9728 84.1283 39.9728 84.1283 39.9728 84.1359C39.9728 84.1359 39.9728 84.1436 39.9728 84.1665H53.2996C53.2996 76.755 47.2926 70.748 39.8812 70.748V84.0749ZM0 84.0749H39.8812V70.748H0V84.0749Z" fill="#A5EC5F"/>
</svg>
