<svg width="282" height="31" viewBox="0 0 282 31" fill="none" xmlns="http://www.w3.org/2000/svg">
<path d="M146.506 26.614C146.506 25.5117 145.634 24.6246 144.532 24.6057C143.429 24.6057 142.542 25.4777 142.523 26.58C142.523 27.6823 143.395 28.5695 144.498 28.5884C144.498 28.5884 144.498 28.5884 144.516 28.5884C145.566 28.6412 146.453 27.822 146.491 26.7914V26.6329L146.51 26.614H146.506ZM141.617 25.9383C141.617 24.6774 141.938 23.1825 143.093 22.5256C143.788 22.133 144.871 21.9405 145.404 21.797C145.758 21.6913 146.027 21.495 146.06 21.2119H146.861C146.861 21.9405 146.487 22.2802 145.83 22.4577C145.37 22.5823 144.177 22.7786 143.535 23.1145C142.825 23.4883 142.467 24.3074 142.361 25.3531H142.395C142.788 24.3943 143.675 23.8582 144.743 23.8582C146.306 23.8582 147.374 24.9417 147.374 26.5612C147.374 28.1806 146.272 29.3698 144.513 29.3698C142.912 29.3698 141.632 28.426 141.632 25.9194L141.613 25.9383H141.617Z" fill="black"/>
<path d="M148.443 23.9678H149.277V27.9656H149.296L152.301 23.9678H153.12V29.2113H152.282V25.2135H152.263L149.296 29.2113H148.461V23.9678H148.443Z" fill="black"/>
<path d="M154.007 28.8905L154.362 28.1808C154.932 28.4828 155.57 28.6413 156.23 28.6413C157.084 28.6413 157.707 28.411 157.707 27.7353C157.707 27.0595 157.208 26.8482 156.283 26.8482H155.287V26.1196H156.23C157.031 26.1196 157.529 25.9421 157.529 25.3532C157.529 24.7643 157.05 24.5869 156.249 24.5869C155.645 24.5869 155.041 24.7304 154.49 24.9418L154.188 24.2132C154.864 23.964 155.558 23.8394 156.287 23.8206C157.605 23.8206 158.401 24.3 158.401 25.1909C158.401 25.8666 157.956 26.3272 157.155 26.4367C158.042 26.5424 158.541 26.9878 158.541 27.8221C158.541 28.7999 157.831 29.4227 156.212 29.4227C155.445 29.4416 154.702 29.2793 154.026 28.9244L154.007 28.8905Z" fill="black"/>
<path d="M164.301 23.9678V29.2113H163.482V26.8104H160.425V29.2113H159.605V23.9678H160.425V26.0667H163.482V23.9678H164.301Z" fill="black"/>
<path d="M166.257 26.0819H169.707C169.636 25.123 169.032 24.5529 168.035 24.5529C167.129 24.5001 166.348 25.1758 166.276 26.0819H166.257ZM170.576 26.5613V26.7047H166.219C166.238 27.8788 167.001 28.5885 168.103 28.5885C168.832 28.5885 169.507 28.2148 169.9 27.5919L170.485 28.1241C169.968 28.9245 169.062 29.4039 168.103 29.385C166.449 29.385 165.381 28.2638 165.381 26.5953C165.381 24.9267 166.45 23.7866 168.046 23.7866C169.772 23.7866 170.572 24.9946 170.572 26.5424V26.5613H170.576Z" fill="black"/>
<path d="M171.323 26.5952C171.323 24.9228 172.497 23.8054 174.169 23.8054C174.811 23.8054 175.43 23.9828 175.966 24.3226L175.574 25.0323C175.147 24.7643 174.649 24.6057 174.151 24.6057C173.048 24.6057 172.161 25.4929 172.161 26.6141C172.161 27.7352 173.048 28.6035 174.151 28.6035C174.649 28.6035 175.147 28.445 175.574 28.1769L175.966 28.8866C175.434 29.2226 174.811 29.4038 174.169 29.4038C172.482 29.4038 171.323 28.2826 171.323 26.6141V26.5952Z" fill="black"/>
<path d="M147.197 12.1632C149.186 12.1632 150.557 10.5815 150.557 8.67887C150.557 6.77625 149.224 5.22847 147.197 5.22847C145.347 5.1945 143.818 6.65168 143.784 8.50146V8.67887C143.784 10.6004 145.188 12.1821 147.197 12.1821V12.1632ZM147.231 3.45044C150.236 3.45044 152.689 5.65506 152.689 8.67887C152.671 11.5781 150.307 13.9224 147.408 13.9224C146.091 13.9224 144.811 13.5487 143.852 12.4464H143.746V20.0569H141.738V9.4943C141.738 5.81362 143.852 3.45044 147.25 3.45044H147.231Z" fill="black"/>
<path d="M160.051 12.1444C162.059 12.1444 163.429 10.5966 163.429 8.67887C163.429 6.76115 162.059 5.21338 160.051 5.21338C158.042 5.21338 156.672 6.74227 156.672 8.67887C156.672 10.6155 158.042 12.1632 160.051 12.1632V12.1444ZM154.558 8.67887C154.558 5.67393 157.084 3.45044 160.051 3.45044C163.018 3.45044 165.544 5.67393 165.544 8.67887C165.544 11.6838 163.018 13.9073 160.051 13.9073C157.084 13.9073 154.558 11.7027 154.558 8.67887Z" fill="black"/>
<path d="M172.961 13.9225C169.813 13.9225 167.416 11.7178 167.416 8.69403C167.416 5.67022 169.764 3.46558 172.893 3.46558C175.294 3.46558 177.552 4.7642 178.122 7.25196H176.061C175.562 5.91937 174.354 5.22476 172.95 5.22476C170.836 5.22476 169.537 6.8065 169.537 8.728C169.537 10.6495 170.87 12.1784 172.988 12.1784C174.358 12.1784 175.619 11.5366 176.099 10.0983H178.179C177.431 12.7296 175.264 13.9376 172.95 13.9376L172.969 13.9187L172.961 13.9225Z" fill="black"/>
<path d="M185.619 12.4803L182.312 5.58328H182.256V13.7072H180.319V3.68066H183.396L186.665 10.5437H186.722L189.991 3.68066H193.067V13.7261H191.131V5.58328H191.074L187.786 12.4803H185.6H185.619Z" fill="black"/>
<path d="M200.731 12.1444C202.739 12.1444 204.109 10.5966 204.109 8.67887C204.109 6.76115 202.739 5.21338 200.731 5.21338C198.722 5.21338 197.352 6.74227 197.352 8.67887C197.352 10.6155 198.722 12.1632 200.731 12.1632V12.1444ZM195.238 8.67887C195.238 5.67393 197.764 3.45044 200.731 3.45044C203.698 3.45044 206.223 5.68903 206.223 8.67887C206.223 11.6687 203.698 13.9073 200.731 13.9073C197.764 13.9073 195.238 11.7027 195.238 8.67887Z" fill="black"/>
<path d="M207.239 13.7977V11.7176H207.273C207.7 11.7176 208.126 11.5402 208.428 11.2193C208.802 10.8116 208.979 10.0453 209.194 8.96183L209.496 7.36122C209.832 5.51144 210.493 3.62769 213.264 3.62769H217.175V13.7071H215.167V5.49256H213.604C212.041 5.49256 211.701 5.91915 211.327 8.05206L211.059 9.56208C210.829 10.9324 210.474 12.1216 209.761 12.8879C209.157 13.5108 208.304 13.8316 207.431 13.7939H207.216H207.235L207.239 13.7977Z" fill="black"/>
<path d="M224.891 12.1444C226.899 12.1444 228.251 10.5966 228.251 8.67887C228.251 6.76115 226.88 5.21338 224.891 5.21338C222.902 5.21338 221.531 6.76115 221.531 8.67887C221.531 10.5966 222.883 12.1632 224.891 12.1632V12.1444ZM219.398 8.67887C219.398 5.67393 221.924 3.45044 224.891 3.45044C227.858 3.45044 230.384 5.67393 230.384 8.67887C230.384 11.6838 227.858 13.9073 224.891 13.9073C221.924 13.9073 219.398 11.7027 219.398 8.67887Z" fill="black"/>
<path d="M239.24 11.8764V5.45879H237.356C236.129 5.45879 235.722 6.43653 235.472 7.46712L235.027 9.4037C234.778 10.472 234.404 11.3592 234.03 11.7518V11.8952H239.221L239.24 11.8764ZM232.698 16.1422H230.761V11.8386H232.06C232.645 11.1968 232.947 10.238 233.215 9.06396L233.642 7.1953C234.049 5.39838 234.816 3.60522 237.303 3.60522H241.195V11.8197H242.653V16.1233H240.716V13.6884H232.679V16.1233L232.698 16.1422Z" fill="black"/>
<path d="M250.709 0H252.789V2.08006H250.709V0ZM252.823 7.73507C252.502 6.20618 251.328 5.19447 249.587 5.19447C248.025 5.14162 246.616 6.20618 246.262 7.73507H252.823ZM246.19 0H248.27V2.08006H246.19V0ZM249.674 13.9224C246.473 13.9224 244.144 11.7178 244.144 8.69395C244.144 5.67014 246.492 3.46549 249.603 3.46549C252.022 3.46549 254.899 5.04725 254.899 8.8525V9.26021H246.152C246.367 10.9326 247.681 12.1594 249.655 12.1594C250.829 12.1594 252.234 11.7329 252.626 10.7212H254.688C254.065 12.9258 251.735 13.9375 249.674 13.9375V13.9186V13.9224Z" fill="black"/>
<path d="M264.382 3.68074V7.64454H266.05L268.417 3.68074H270.622L267.689 8.46372L270.871 13.7073H268.614L266.069 9.47543H264.363V13.7073H262.479V9.45656H260.773L258.229 13.6884H255.971L259.153 8.44485L256.22 3.66187H258.425L260.773 7.64454H262.441V3.68074H264.344H264.382Z" fill="black"/>
<path d="M277.13 12.1594C278.731 12.1594 279.886 11.0382 279.886 9.4753C279.92 7.96528 278.731 6.70064 277.202 6.66666C275.692 6.63269 274.427 7.82185 274.393 9.35074C274.359 10.8608 275.548 12.1254 277.077 12.1594H277.13ZM272.276 9.18842V3.65796H274.25V6.51945H274.322C275.088 5.52284 276.277 4.95656 277.538 4.99054C280.011 4.99054 282 6.82146 282 9.39982C282 11.9782 279.954 13.9336 277.164 13.9336C274.374 13.9336 272.294 11.9442 272.276 9.20351V9.18464V9.18842Z" fill="black"/>
<path d="M106.913 30.189L87.0866 18.3844V29.2113H81.7185V8.94304L106.362 23.6091L131.678 2.09888V29.2113H126.309V13.7072L106.913 30.189Z" fill="#FDCB00"/>
<path d="M6.22505 20.1249H4.73014V14.8436C4.73014 14.7002 4.74901 14.5756 4.80186 14.451C4.65841 14.5039 4.51873 14.5227 4.37528 14.5038H1.84977C1.70632 14.5038 1.56664 14.5039 1.42319 14.451C1.47604 14.5756 1.51379 14.719 1.49492 14.8436V20.1249H0V13.1184H6.22128V20.1249H6.22505Z" fill="black"/>
<path d="M9.46029 16.6216C9.46029 18.0071 10.4041 18.9697 11.7366 18.9697C13.0692 18.9697 13.8507 18.0826 13.8507 16.6216C13.8507 15.1607 13.0692 14.2735 11.7366 14.2735C10.4041 14.2735 9.46029 15.2513 9.46029 16.6216ZM15.4173 16.6216C15.4173 18.8074 14.013 20.3551 12.0198 20.3551C10.9175 20.3891 9.90574 19.77 9.44141 18.7545H9.38856C9.49426 19.234 9.53202 19.7323 9.53202 20.2306V23.1449H8.05597V13.1335H9.49426C9.49426 13.5789 9.49426 14.0395 9.40366 14.4849H9.45651C9.91707 13.5072 10.9326 12.8654 12.0349 12.9032C14.0092 12.9032 15.4135 14.451 15.4135 16.6367V16.6179L15.4173 16.6216Z" fill="black"/>
<path d="M17.9088 16.6217C17.9088 17.9921 18.8148 18.8981 20.1663 18.8981C21.5178 18.8981 22.4238 17.9921 22.4238 16.6217C22.4238 15.2514 21.5178 14.3453 20.1663 14.3453C18.8148 14.3453 17.9088 15.2514 17.9088 16.6217ZM24.0055 16.6217C24.0055 18.7546 22.386 20.3552 20.1663 20.3552C17.9466 20.3552 16.3271 18.7546 16.3271 16.6217C16.3271 14.4888 17.9466 12.8882 20.1663 12.8882C22.386 12.8882 24.0055 14.4888 24.0055 16.6217Z" fill="black"/>
<path d="M26.4405 15.9117L26.4744 15.9457C26.7425 15.84 27.0445 15.7871 27.3465 15.7871H29.1056C29.8342 15.7871 30.0834 15.8211 30.2268 15.9306L30.2608 15.8966C30.1702 14.8472 29.4945 14.2431 28.4299 14.2431C27.3653 14.2431 26.6179 14.866 26.4556 15.9155H26.4367L26.4405 15.9117ZM31.8275 16.6214V16.9234H27.3276C27.0067 16.9574 26.7047 16.9234 26.4027 16.7989L26.3687 16.8328L26.4216 17.0103C26.565 18.256 27.3465 18.9469 28.5922 18.9469C29.4114 18.9469 30.0154 18.6449 30.7063 17.9163L31.6123 18.894C30.8837 19.8378 29.7436 20.3889 28.5545 20.3701C26.3687 20.3701 24.9116 18.894 24.9116 16.6894C24.9116 14.4848 26.3159 12.9219 28.4677 12.9219C30.6194 12.9219 31.8086 14.3073 31.8086 16.6365L31.8275 16.6177V16.6214Z" fill="black"/>
<path d="M37.1087 19.2528L36.7539 18.0071C36.5765 17.2974 36.3273 17.0482 35.7761 17.0482H35.1193C34.9607 17.0482 34.7984 17.0482 34.6587 17.0142C34.7116 17.2294 34.7493 17.4408 34.7305 17.656V20.1286H33.2355V13.1221H34.7305V15.2928C34.7305 15.508 34.7305 15.7005 34.6587 15.8968C34.8173 15.8779 34.9796 15.8628 35.1193 15.8628H35.7761C36.3613 15.8628 36.5236 15.7194 36.7728 15.0097L37.2899 13.7639C37.4862 13.2656 37.8939 13.0542 38.6603 13.0542H39.4077V14.3868H39.0869C38.732 14.3339 38.3772 14.5642 38.3054 14.9191L38.0563 15.5608C37.86 16.1459 37.3805 16.414 36.5614 16.4329V16.4857C37.4485 16.4857 37.86 16.7537 38.0563 17.3917L38.3583 18.3695C38.4829 18.7432 38.5886 18.8149 39.068 18.8149H39.4417V20.1475H38.5546C37.7354 20.1475 37.2937 19.8795 37.1163 19.2415V19.2604L37.1087 19.2528Z" fill="black"/>
<path d="M46.6898 13.1221V14.5075H44.4852C44.3417 14.5075 44.2021 14.5075 44.0586 14.4547C44.1115 14.5792 44.1492 14.7227 44.1303 14.8473V20.1286H42.6354V14.8473C42.6354 14.7038 42.6543 14.5792 42.7071 14.4547C42.5637 14.5075 42.424 14.5264 42.2806 14.5075H40.0759V13.1221H46.6898Z" fill="black"/>
<path d="M53.4283 16.6217C53.4283 17.9921 54.3343 18.8981 55.6858 18.8981C57.0372 18.8981 57.9432 17.9921 57.9432 16.6217C57.9432 15.2514 57.0372 14.3453 55.6858 14.3453C54.4928 14.2736 53.4811 15.1796 53.4283 16.3725V16.6217ZM59.525 16.6217C59.525 18.7546 57.9055 20.3552 55.7009 20.3552C53.4962 20.3552 51.8616 18.7546 51.8616 16.6217C51.8616 14.4888 53.4811 12.8882 55.7009 12.8882C57.9206 12.8882 59.525 14.4888 59.525 16.6217Z" fill="black"/>
<path d="M66.607 13.1221V14.5075H64.4212C64.2778 14.5075 64.1381 14.5075 63.9946 14.4547C64.0475 14.5792 64.0852 14.7227 64.0664 14.8473V20.1286H62.5714V14.8473C62.5714 14.7038 62.5903 14.5792 62.6432 14.4547C62.4997 14.5075 62.36 14.5264 62.2166 14.5075H59.9931V13.1221H66.607Z" fill="black"/>
</svg>
