<svg width="397" height="368" viewBox="0 0 397 368" fill="none" xmlns="http://www.w3.org/2000/svg">
<path d="M202.004 132.021L121.323 12.3186L92.1786 33.5024L172.86 153.205L202.004 132.021ZM230.127 156.936C218.861 151.299 209.263 142.774 201.99 132.018L172.853 153.234C183.42 168.896 197.559 181.519 214.309 189.894L230.112 156.933L230.127 156.936ZM356.352 220.512L230.167 156.96L214.284 189.873L340.469 253.424L356.352 220.512ZM187.436 142.629L172.857 153.219L187.439 142.614L187.436 142.629ZM222.232 173.418L230.181 156.963L230.152 156.957L230.123 156.951L222.215 173.43L222.232 173.418Z" fill="white"/>
<path d="M181.313 162.763L110.473 312.712L142.239 328.351L213.079 178.402L181.313 162.763ZM220.318 159.245C210.652 144.78 189.15 146.269 181.323 162.719L213.058 178.429C208.726 187.54 196.498 188.417 191.092 180.317L220.318 159.245ZM307.937 294.508L220.455 159.446L190.947 180.082L278.429 315.144L307.937 294.508ZM197.19 170.574L181.323 162.719L181.319 162.733L181.316 162.748L197.205 170.577L197.19 170.574ZM205.705 169.781L220.452 159.461L220.385 159.353L220.318 159.245L205.705 169.781Z" fill="white"/>
<path d="M194.656 144.807L31.4528 160.15L34.1477 196.567L197.351 181.223L194.656 144.807ZM218.914 166.053C218.007 153.772 207.733 143.567 194.656 144.807L197.351 181.223C189.774 181.938 184.112 175.987 183.618 169.376L218.914 166.053ZM229.066 334.125L218.934 166.307L183.612 169.125L193.743 336.942L229.066 334.125ZM201.264 167.722L218.931 166.322L218.928 166.197L218.925 166.071L201.279 167.725L201.264 167.722Z" fill="white"/>
<path d="M200.662 142.297L56.0488 74.8989L41.0935 108.263L185.707 175.661L200.662 142.297ZM203.817 182.706C218.18 172.35 216.521 149.916 200.839 142.382L185.529 175.576C176.634 171.315 175.712 158.686 183.852 152.809L203.82 182.691L203.817 182.706ZM71.3313 278.869L203.856 182.667L183.796 152.86L51.2712 249.061L71.3313 278.869ZM193.174 158.992L200.822 142.394L200.742 142.346L200.655 142.327L193.188 158.996L193.174 158.992ZM193.815 167.777L183.831 152.836L183.828 152.851L183.781 152.856L193.818 167.762L193.815 167.777Z" fill="white"/>
<path d="M210.004 132.021L129.323 12.3186L100.179 33.5024L180.86 153.205L210.004 132.021ZM238.127 156.936C226.861 151.299 217.263 142.774 209.99 132.018L180.853 153.234C191.42 168.896 205.559 181.519 222.309 189.894L238.112 156.933L238.127 156.936ZM364.352 220.512L238.167 156.96L222.284 189.873L348.469 253.424L364.352 220.512ZM195.436 142.629L180.857 153.219L195.439 142.614L195.436 142.629ZM230.232 173.418L238.181 156.963L238.152 156.957L238.123 156.951L230.215 173.43L230.232 173.418Z" fill="#8BEA3F"/>
<path d="M189.313 162.763L118.473 312.712L150.239 328.351L221.079 178.402L189.313 162.763ZM228.318 159.245C218.652 144.78 197.15 146.269 189.323 162.719L221.058 178.429C216.726 187.54 204.498 188.417 199.092 180.317L228.318 159.245ZM315.937 294.508L228.455 159.446L198.947 180.082L286.429 315.144L315.937 294.508ZM205.19 170.574L189.323 162.719L189.319 162.733L189.316 162.748L205.205 170.577L205.19 170.574ZM213.705 169.781L228.452 159.461L228.385 159.353L228.318 159.245L213.705 169.781Z" fill="#8BEA3F"/>
<path d="M202.656 144.807L39.4528 160.15L42.1477 196.567L205.351 181.223L202.656 144.807ZM226.914 166.053C226.007 153.772 215.733 143.567 202.656 144.807L205.351 181.223C197.774 181.938 192.112 175.987 191.618 169.376L226.914 166.053ZM237.066 334.125L226.934 166.307L191.612 169.125L201.743 336.942L237.066 334.125ZM209.264 167.722L226.931 166.322L226.928 166.197L226.925 166.071L209.279 167.725L209.264 167.722Z" fill="#8BEA3F"/>
<path d="M208.662 142.297L64.0488 74.8989L49.0935 108.263L193.707 175.661L208.662 142.297ZM211.817 182.706C226.18 172.35 224.521 149.916 208.839 142.382L193.529 175.576C184.634 171.315 183.712 158.686 191.852 152.809L211.82 182.691L211.817 182.706ZM79.3313 278.869L211.856 182.667L191.796 152.86L59.2712 249.061L79.3313 278.869ZM201.174 158.992L208.822 142.394L208.742 142.346L208.655 142.327L201.188 158.996L201.174 158.992ZM201.815 167.777L191.831 152.836L191.828 152.851L191.781 152.856L201.818 167.762L201.815 167.777Z" fill="#8BEA3F"/>
</svg>
