<svg width="200" height="218" viewBox="0 0 200 218" fill="none" xmlns="http://www.w3.org/2000/svg">
<path d="M133.89 106.231L199.25 37.9899L181.65 22.2903L116.29 90.531L133.89 106.231ZM121.86 127.681C123.9 119.691 128.02 112.368 133.89 106.221L116.27 90.531C107.72 99.4663 101.61 110.264 98.58 122.142L121.86 127.672V127.681ZM98.73 217.257L121.85 127.71L98.59 122.123L75.47 211.67L98.73 217.257ZM125.08 98.3856L116.28 90.531L125.09 98.3856H125.08ZM110.22 124.921L121.85 127.72V127.701V127.681L110.21 124.912L110.22 124.921Z" fill="#FDA12D"/>
<path d="M111.35 97.2663L5.58997 72.7858L0 95.2786L105.76 119.759L111.35 97.2663ZM119.02 121.728C126.93 113.535 122.99 99.9874 111.38 97.2663L105.74 119.749C99.31 118.244 97.05 110.544 101.48 105.96L119.02 121.728ZM44.67 196.568L118.91 121.843L101.61 105.835L27.37 180.56L44.67 196.568ZM108.56 108.508L111.38 97.2663H111.37H111.36L108.56 108.518V108.508ZM110.25 113.844L118.9 121.843L118.96 121.785L119.02 121.728L110.25 113.844Z" fill="#FDA12D"/>
<path d="M124.69 103.307L92.2 1.04224L69.28 7.82577L101.77 110.09L124.69 103.307ZM114.47 121.776C122.2 119.489 127.3 111.499 124.69 103.307L101.77 110.09C100.26 105.343 103.28 100.894 107.44 99.6593L114.47 121.776ZM8.37 151.621L114.31 121.824L107.6 99.6206L1.66003 129.418L8.37 151.621ZM110.95 110.717L114.3 121.824L114.38 121.805L114.46 121.785L110.95 110.727V110.717Z" fill="#FDA12D"/>
<path d="M127.13 106.8L150.15 4.93087L126.73 0L103.71 101.869L127.13 106.8ZM101.72 114.432C110.34 122.181 124.46 118.003 127.1 106.925L103.74 101.743C105.23 95.4617 113.18 93.1169 118.07 97.5073L101.73 114.432H101.72ZM21.8 43.0461L101.75 114.452L118.03 97.4784L38.08 26.0727L21.8 43.0461ZM115.41 104.329L127.09 106.916L127.11 106.858V106.8L115.41 104.339V104.329ZM109.88 105.96L118.05 97.4977H118.04L118.03 97.4688L109.89 105.96H109.88Z" fill="#FDA12D"/>
</svg>
