<svg width="200" height="226" viewBox="0 0 200 226" fill="none" xmlns="http://www.w3.org/2000/svg">
<path d="M133.89 110.09L199.25 39.3701L181.65 23.1001L116.29 93.8201L133.89 110.09ZM121.86 132.32C123.9 124.04 128.02 116.45 133.89 110.08L116.27 93.8201C107.72 103.08 101.61 114.27 98.58 126.58L121.86 132.31V132.32ZM98.73 225.15L121.85 132.35L98.59 126.56L75.47 219.36L98.73 225.15ZM125.08 101.96L116.28 93.8201L125.09 101.96H125.08ZM110.22 129.46L121.85 132.36V132.34V132.32L110.21 129.45L110.22 129.46Z" fill="white"/>
<path d="M111.35 100.8L5.58997 75.4302L0 98.7402L105.76 124.11L111.35 100.8ZM119.02 126.15C126.93 117.66 122.99 103.62 111.38 100.8L105.74 124.1C99.31 122.54 97.05 114.56 101.48 109.81L119.02 126.15ZM44.67 203.71L118.91 126.27L101.61 109.68L27.37 187.12L44.67 203.71ZM108.56 112.45L111.38 100.8H111.37H111.36L108.56 112.46V112.45ZM110.25 117.98L118.9 126.27L118.96 126.21L119.02 126.15L110.25 117.98Z" fill="white"/>
<path d="M124.69 107.06L92.2 1.08008L69.28 8.11008L101.77 114.09L124.69 107.06ZM114.47 126.2C122.2 123.83 127.3 115.55 124.69 107.06L101.77 114.09C100.26 109.17 103.28 104.56 107.44 103.28L114.47 126.2ZM8.37 157.13L114.31 126.25L107.6 103.24L1.66003 134.12L8.37 157.13ZM110.95 114.74L114.3 126.25L114.38 126.23L114.46 126.21L110.95 114.75V114.74Z" fill="white"/>
<path d="M127.13 110.68L150.15 5.11002L126.73 0L103.71 105.57L127.13 110.68ZM101.72 118.59C110.34 126.62 124.46 122.29 127.1 110.81L103.74 105.44C105.23 98.93 113.18 96.5 118.07 101.05L101.73 118.59H101.72ZM21.8 44.61L101.75 118.61L118.03 101.02L38.08 27.02L21.8 44.61ZM115.41 108.12L127.09 110.8L127.11 110.74V110.68L115.41 108.13V108.12ZM109.88 109.81L118.05 101.04H118.04L118.03 101.01L109.89 109.81H109.88Z" fill="white"/>
</svg>
