<svg width="38" height="35" viewBox="0 0 38 35" fill="none" xmlns="http://www.w3.org/2000/svg">
<g clip-path="url(#clip0_37_2520)">
<g clip-path="url(#clip1_37_2520)">
<g clip-path="url(#clip2_37_2520)">
<mask id="mask0_37_2520" style="mask-type:luminance" maskUnits="userSpaceOnUse" x="2" y="0" width="34" height="35">
<path d="M35.5829 0.927246H2.42691V34.0832H35.5829V0.927246Z" fill="white"/>
</mask>
<g mask="url(#mask0_37_2520)">
<path fill-rule="evenodd" clip-rule="evenodd" d="M4.76381 3.26397C2.4369 5.59088 2.4369 9.34143 2.4369 16.8425V18.1778C2.4369 25.6789 2.4369 29.4294 4.76381 31.7563C7.09072 34.0832 10.8413 34.0832 18.3424 34.0832H19.6776C27.1787 34.0832 30.9293 34.0832 33.2562 31.7563C35.5831 29.4294 35.5831 25.6789 35.5831 18.1778V16.8327C35.5831 9.33161 35.5831 5.58106 33.2562 3.25416C30.9293 0.927246 27.1689 0.927246 19.6678 0.927246H18.3325C10.8314 0.927246 7.0809 0.927246 4.76381 3.26397ZM8.03327 11.0203C8.21 19.6407 12.5202 24.8149 20.0704 24.8149H20.4729V19.9058C21.803 20.0703 23.0548 20.624 24.0714 21.4973C25.088 22.3707 25.824 23.5248 26.1871 24.8149H30.1144C29.7033 23.3354 28.9857 21.9589 28.008 20.7748C27.0303 19.5908 25.8145 18.6257 24.4394 17.9422C25.6766 17.1912 26.7458 16.1933 27.5803 15.0109C28.4147 13.8284 28.9966 12.4867 29.2896 11.0694H25.7453C24.9696 13.7989 22.6722 16.2927 20.4925 16.5185V11.0105H16.9285V20.5636C14.7194 20.0138 11.9311 17.3334 11.8034 11.0105L8.03327 11.0203Z" fill="black"/>
</g>
</g>
</g>
</g>
<defs>
<clipPath id="clip0_37_2520">
<rect width="38" height="35" fill="white"/>
</clipPath>
<clipPath id="clip1_37_2520">
<rect width="54" height="35" fill="white" transform="translate(-8)"/>
</clipPath>
<clipPath id="clip2_37_2520">
<rect width="54" height="34.3636" fill="white" transform="translate(-8 0.318359)"/>
</clipPath>
</defs>
</svg>
