<svg width="1751" height="659" viewBox="0 0 1751 659" fill="none" xmlns="http://www.w3.org/2000/svg">
<g clip-path="url(#clip0_2003_16)">
<rect width="154.827" height="261.994" transform="translate(18.8423 310.104) rotate(16.5053)" fill="#A4EA5F"/>
<rect width="603.518" height="1809.99" transform="translate(1741.01 -112.831) rotate(88.8554)" fill="#A4EA5F"/>
<rect width="372" height="212" transform="translate(149 321)" fill="#FDA12D"/>
<rect width="154.827" height="240.424" transform="translate(151.661 374.997) rotate(26.6704)" fill="#FDA12D"/>
<rect width="154.827" height="300.903" transform="translate(509.578 462.879) rotate(90.4676)" fill="#FDA12D"/>
<rect width="647" height="230" transform="translate(1044 349)" fill="#FDA12D"/>
<rect width="327" height="77" transform="translate(478.97 443) rotate(16.5785)" fill="#FDA12D"/>
<rect width="204.01" height="309.284" transform="translate(1547 304.53) rotate(-14.0341)" fill="#FDA12D"/>
<path d="M1386.59 430.267C1454.4 415.453 1621.99 363.603 1756 272.587L1724.39 226.529C1598.26 312.197 1438.11 361.916 1374.58 375.793L1386.6 430.26L1386.59 430.267ZM937.067 42.8892C885.818 53.4207 852.374 93.3518 840.924 141.055C829.509 188.593 839.163 244.997 872.765 295.709C940.847 398.458 1102.57 473.901 1384.85 430.596L1376.3 375.479C1104.95 417.111 970.583 341.997 919.572 265.016C893.631 225.871 887.982 185.118 895.45 154.003C902.882 123.052 922.49 102.832 948.409 97.5058L937.067 42.8892ZM1117.09 417.197C1121.4 408.553 1124.34 395.569 1126.47 382.921C1128.79 369.13 1130.73 352.078 1131.86 333.138C1134.12 295.381 1133.27 248.622 1125.23 203.836C1117.31 159.687 1101.78 113.864 1071.9 81.5047C1040.22 47.2005 995.079 30.9636 937.067 42.8892L948.409 97.5058C988.337 89.2979 1013.09 100.273 1030.61 119.234C1049.92 140.147 1062.87 173.664 1070.04 213.638C1077.1 252.976 1077.97 295.145 1075.9 329.835C1074.86 347.116 1073.12 362.166 1071.18 373.698C1070.2 379.475 1069.21 384.144 1068.31 387.633C1067.31 391.48 1066.71 392.731 1066.87 392.409L1117.09 417.197ZM689.061 541.959C763.346 584.45 826.994 602.067 881.62 601.952C936.65 601.838 980.423 583.721 1014.41 558.461C1080.48 509.371 1109.59 432.24 1117.09 417.19L1066.87 392.402C1056.2 413.794 1033.43 474.716 980.854 513.782C955.525 532.607 923.295 546.092 881.505 546.178C839.306 546.263 785.312 532.672 717.007 493.606L689.061 541.952V541.959ZM391.209 535.725C397.297 516.034 417.286 488.68 460.743 479.378C505.12 469.876 577.997 478.441 689.054 541.959L717 493.613C599.912 426.642 512.387 411.27 448.941 424.854C384.582 438.639 349.341 481.401 337.617 519.33L391.209 535.718V535.725ZM513.393 550.946C489.192 588.053 452.355 598.513 426.156 592.708C413.103 589.812 403.205 583.12 397.297 574.276C391.561 565.689 387.867 552.512 391.87 533.144L336.956 521.919C330.401 553.635 335.425 582.412 350.606 605.141C365.606 627.605 388.816 641.569 413.958 647.146C464.165 658.278 524.125 636.957 560.423 581.304L513.393 550.954V550.946ZM362.473 332.774C463.079 328.727 509.375 367.056 527.747 408.975C547.535 454.125 538.946 511.773 513.4 550.946L560.43 581.297C594.694 528.761 607.502 451.408 579.139 386.689C549.353 318.731 477.965 272.316 360.208 277.056L362.473 332.781V332.774ZM72.6995 634.948C95.2258 560.162 129.001 485.384 176.864 428.951C224.26 373.069 284.694 335.905 362.48 332.774L360.216 277.049C263.311 280.953 189.133 328.005 134.018 392.988C79.3697 457.421 42.7411 540.143 19 618.94L72.7067 634.948H72.6995ZM1380.58 403.041L1384.85 430.596L1385.72 430.46L1386.59 430.274L1380.57 403.041H1380.58ZM364.42 527.531L337.625 519.338L337.229 520.61L336.956 521.919L364.413 527.531H364.42Z" fill="#0041DC"/>
<path d="M1367.59 388.465C1435.4 373.528 1602.99 321.252 1737 229.487L1705.39 183.049C1579.25 269.422 1419.11 319.551 1355.57 333.542L1367.59 388.457V388.465ZM922.049 4.37767C871.339 15.3996 837.665 55.0179 825.726 102.587C813.816 150.02 822.858 206.189 856.022 256.584C923.141 358.563 1083.91 432.401 1365.85 388.789L1357.31 333.218C1085.62 375.244 952.589 301.241 902.814 225.616C877.535 187.209 872.36 147.122 880.094 116.319C887.792 85.6542 907.63 65.0522 933.93 59.3286L922.056 4.37767H922.049ZM1098.09 375.28C1102.31 366.76 1105.35 353.928 1107.63 341.248C1110.1 327.494 1112.25 310.489 1113.63 291.61C1116.38 253.981 1116.18 207.407 1108.76 162.858C1101.44 118.979 1086.5 73.2771 1056.76 41.199C1025.14 7.08809 979.967 -8.21569 922.049 4.37046L933.923 59.3214C974.411 50.5197 998.835 61.2893 1015.69 79.4765C1034.43 99.6966 1046.84 132.517 1053.45 172.121C1059.94 211.062 1060.23 252.943 1057.7 287.494C1056.44 304.701 1054.52 319.716 1052.44 331.257C1051.4 337.039 1050.36 341.724 1049.42 345.249C1048.39 349.113 1047.76 350.468 1047.86 350.273L1098.08 375.266L1098.09 375.28ZM670.061 501.07C744.346 543.91 807.994 561.672 862.62 561.557C917.65 561.441 961.423 543.175 995.414 517.707C1061.48 468.213 1090.59 390.447 1098.09 375.273L1047.87 350.281C1037.2 371.849 1014.43 433.273 961.861 472.661C936.532 491.641 904.302 505.236 862.513 505.323C820.314 505.409 766.319 491.706 698.014 452.318L670.068 501.062L670.061 501.07ZM372.209 494.784C378.297 474.931 398.286 447.351 441.743 437.973C486.12 428.393 558.997 437.029 670.054 501.07L698 452.325C580.912 384.803 493.387 369.304 429.941 383C365.582 396.899 330.341 440.013 318.617 478.254L372.209 494.776V494.784ZM494.393 510.131C470.192 547.543 433.355 558.089 407.156 552.236C394.103 549.316 384.205 542.569 378.297 533.652C372.561 524.995 368.867 511.709 372.87 492.181L317.956 480.864C311.401 512.841 316.425 541.856 331.606 564.772C346.606 587.421 369.816 601.499 394.958 607.122C445.165 618.346 505.125 596.85 541.423 540.738L494.393 510.138V510.131ZM343.473 290.161C444.079 286.081 490.375 324.726 508.747 366.99C528.535 412.512 519.946 470.635 494.4 510.131L541.43 540.731C575.694 487.763 588.502 409.773 560.139 344.521C530.353 276.004 458.965 229.206 341.209 233.985L343.473 290.168V290.161ZM53.6995 594.824C76.2258 519.423 110.001 444.028 157.864 387.131C205.26 330.789 265.694 293.319 343.48 290.161L341.216 233.978C244.311 237.914 170.133 285.36 115.018 350.872C60.3697 415.835 23.7411 499.239 0 578.684L53.7067 594.824H53.6995ZM1361.58 361.007L1365.85 388.789L1366.72 388.652L1367.59 388.465L1361.57 361.007H1361.58ZM345.421 486.53L318.625 478.269L318.229 479.552L317.956 480.871L345.413 486.53H345.421Z" fill="#C5FB8F"/>
</g>
<defs>
<clipPath id="clip0_2003_16">
<rect width="1751" height="659" fill="white"/>
</clipPath>
</defs>
</svg>
