<svg width="1440" height="577" viewBox="0 0 1440 577" fill="none" xmlns="http://www.w3.org/2000/svg">
<path d="M113.507 213.413L-46.2889 354.724L-55 554.974L1530 577V404.811V213.413L1304.92 235.098L1080.96 277.152L932.487 272.08L842.15 370.74L735.371 404.811L571.442 361.493L448.79 314.623L430.962 273.96L335.695 202L113.507 213.413Z" fill="#FDA12D"/>
<path d="M1183.22 316.092C1245.46 304.976 1399.3 266.072 1522.31 197.779L1493.29 163.22C1377.51 227.5 1230.51 264.805 1172.19 275.218L1183.23 316.086L1183.22 316.092ZM770.58 25.4285C723.537 33.3307 692.837 63.2923 682.327 99.0854C671.849 134.755 680.71 177.077 711.555 215.129C774.051 292.224 922.503 348.832 1181.62 316.338L1173.77 274.982C924.687 306.221 801.346 249.859 754.521 192.098C730.709 162.726 725.523 132.148 732.378 108.801C739.201 85.5772 757.2 70.4059 780.992 66.4092L770.58 25.4285ZM935.831 306.285C939.79 299.799 942.482 290.057 944.441 280.567C946.572 270.218 948.354 257.424 949.39 243.213C951.461 214.882 950.683 179.797 943.306 146.193C936.036 113.066 921.777 78.6836 894.35 54.4031C865.273 28.6634 823.832 16.4802 770.58 25.4285L780.992 66.4092C817.643 60.2506 840.366 68.4853 856.445 82.7124C874.174 98.4041 886.057 123.554 892.641 153.548C899.12 183.064 899.919 214.705 898.018 240.734C897.068 253.701 895.472 264.993 893.684 273.646C892.786 277.981 891.882 281.484 891.051 284.102C890.134 286.988 889.586 287.927 889.732 287.686L935.831 306.285ZM542.926 399.899C611.116 431.781 669.54 444.999 719.684 444.914C770.198 444.828 810.379 431.234 841.58 412.28C902.221 375.446 928.943 317.572 935.831 306.28L889.732 287.68C879.934 303.731 859.031 349.444 810.775 378.756C787.524 392.882 757.939 402.999 719.578 403.064C680.842 403.128 631.279 392.93 568.579 363.617L542.926 399.893V399.899ZM269.516 395.221C275.105 380.446 293.454 359.921 333.344 352.942C374.08 345.812 440.976 352.239 542.92 399.899L568.572 363.623C461.093 313.372 380.75 301.838 322.511 312.031C263.433 322.374 231.084 354.46 220.322 382.919L269.516 395.215V395.221ZM381.674 406.642C359.459 434.485 325.645 442.333 301.595 437.977C289.614 435.804 280.528 430.783 275.105 424.147C269.84 417.704 266.448 407.817 270.123 393.284L219.715 384.861C213.698 408.659 218.31 430.252 232.245 447.306C246.015 464.162 267.319 474.639 290.399 478.824C336.485 487.176 391.525 471.179 424.844 429.42L381.674 406.647V406.642ZM243.138 242.939C335.489 239.903 377.986 268.663 394.85 300.116C413.014 333.994 405.129 377.249 381.681 406.642L424.851 429.415C456.303 389.995 468.06 331.955 442.025 283.394C414.683 232.403 349.153 197.575 241.06 201.132L243.138 242.944V242.939ZM-22.8561 469.671C-2.17827 413.557 28.8252 357.448 72.7606 315.105C116.267 273.174 171.742 245.289 243.145 242.939L241.066 201.127C152.113 204.056 84.0232 239.361 33.4306 288.12C-16.7332 336.467 -50.3561 398.536 -72.1489 457.66L-22.8495 469.671H-22.8561ZM1177.7 295.663L1181.62 316.338L1182.42 316.237L1183.21 316.097L1177.69 295.663H1177.7ZM244.926 389.073L220.329 382.925L219.966 383.88L219.715 384.861L244.919 389.073H244.926Z" fill="#0041DC"/>
<path d="M1170.37 291.479C1232.61 280.272 1386.45 241.047 1509.46 172.192L1480.44 137.348C1364.66 202.157 1217.66 239.77 1159.33 250.269L1170.37 291.473V291.479ZM761.384 3.28472C714.836 11.5548 683.925 41.2819 672.966 76.9748C662.033 112.565 670.333 154.711 700.776 192.524C762.387 269.043 909.962 324.446 1168.77 291.722L1160.93 250.025C911.533 281.559 789.419 226.032 743.728 169.288C720.524 140.469 715.773 110.391 722.872 87.2787C729.939 64.2695 748.149 48.811 772.291 44.5164L761.391 3.28472H761.384ZM922.98 281.586C926.853 275.193 929.644 265.565 931.735 256.051C934.005 245.731 935.978 232.971 937.245 218.806C939.765 190.571 939.587 155.625 932.771 122.198C926.055 89.2745 912.338 54.9825 885.042 30.9131C856.018 5.31845 814.55 -6.16453 761.384 3.27931L772.284 44.5109C809.45 37.9067 831.87 45.9876 847.342 59.6341C864.543 74.8059 875.937 99.4324 882 129.149C887.958 158.367 888.222 189.793 885.906 215.717C884.752 228.628 882.984 239.895 881.077 248.554C880.12 252.892 879.17 256.408 878.306 259.053C877.356 261.952 876.782 262.969 876.867 262.823L922.967 281.575L922.98 281.586ZM530.075 375.97C598.265 408.115 656.689 421.443 706.833 421.356C757.346 421.27 797.528 407.564 828.729 388.454C889.37 351.317 916.092 292.966 922.98 281.581L876.88 262.828C867.083 279.011 846.181 325.1 797.93 354.654C774.679 368.896 745.094 379.097 706.734 379.162C667.998 379.227 618.434 368.944 555.735 339.39L530.082 375.965L530.075 375.97ZM256.665 371.254C262.254 356.358 280.602 335.664 320.493 328.627C361.229 321.438 428.125 327.918 530.069 375.97L555.721 339.396C448.242 288.731 367.899 277.102 309.66 287.379C250.582 297.807 218.233 330.158 207.471 358.851L256.665 371.249V371.254ZM368.823 382.769C346.608 410.841 312.794 418.754 288.744 414.362C276.763 412.172 267.677 407.109 262.254 400.418C256.989 393.922 253.597 383.954 257.272 369.301L206.864 360.809C200.847 384.803 205.459 406.574 219.394 423.768C233.164 440.763 254.468 451.326 277.548 455.545C323.634 463.967 378.674 447.838 411.993 405.735L368.823 382.775V382.769ZM230.287 217.718C322.638 214.657 365.135 243.654 381.999 275.366C400.163 309.523 392.278 353.134 368.829 382.769L411.999 405.73C443.452 365.986 455.209 307.467 429.174 258.507C401.832 207.095 336.302 171.981 228.209 175.567L230.287 217.724V217.718ZM-35.7071 446.318C-15.0293 389.741 15.9742 333.17 59.9095 290.478C103.416 248.203 158.891 220.088 230.294 217.718L228.215 175.562C139.262 178.515 71.1721 214.116 20.5795 263.272C-29.5843 312.016 -63.2072 374.597 -85 434.208L-35.7005 446.318H-35.7071ZM1164.85 270.877L1168.76 291.722L1169.57 291.62L1170.36 291.479L1164.84 270.877H1164.85ZM232.075 365.061L207.478 358.862L207.115 359.825L206.864 360.815L232.068 365.061H232.075Z" fill="#C5FB8F"/>
</svg>
