<svg width="1428" height="524" viewBox="0 0 1428 524" fill="none" xmlns="http://www.w3.org/2000/svg">
<path d="M1126.65 344.186C1181.96 332.063 1318.68 289.633 1428 215.152L1402.21 177.461C1299.32 247.565 1168.67 288.252 1116.84 299.608L1126.65 344.18L1126.65 344.186ZM759.935 27.1827C718.128 35.8009 690.845 68.4777 681.504 107.514C672.193 146.416 680.068 192.573 707.48 234.073C763.019 318.155 894.949 379.893 1125.22 344.455L1118.25 299.351C896.89 333.42 787.277 271.951 745.663 208.956C724.502 176.922 719.893 143.573 725.985 118.11C732.048 92.782 748.044 76.2359 769.188 71.877L759.935 27.1827ZM906.794 333.49C910.312 326.417 912.704 315.792 914.446 305.441C916.34 294.155 917.923 280.201 918.843 264.702C920.685 233.804 919.993 195.54 913.437 158.89C906.976 122.762 894.304 85.2637 869.93 58.7829C844.089 30.7107 807.26 17.4235 759.935 27.1827L769.188 71.877C801.76 65.1603 821.954 74.1413 836.243 89.6577C851.999 106.771 862.559 134.2 868.411 166.912C874.169 199.103 874.878 233.611 873.19 261.999C872.345 276.141 870.926 288.457 869.337 297.894C868.54 302.621 867.737 306.442 866.998 309.297C866.183 312.445 865.696 313.469 865.825 313.205L906.794 333.49ZM557.619 435.587C618.219 470.358 670.14 484.775 714.704 484.681C759.595 484.587 795.304 469.761 823.033 449.091C876.925 408.919 900.672 345.8 906.794 333.484L865.825 313.2C857.118 330.705 838.542 380.56 795.656 412.529C774.993 427.934 748.7 438.969 714.61 439.039C680.185 439.109 636.138 427.987 580.416 396.018L557.619 435.581V435.587ZM314.639 430.485C319.605 414.372 335.912 391.987 371.363 384.375C407.564 376.599 467.015 383.608 557.613 435.587L580.41 396.024C484.893 341.219 413.492 328.64 361.735 339.756C309.232 351.037 280.483 386.031 270.92 417.069L314.639 430.479V430.485ZM414.313 442.941C394.571 473.307 364.52 481.867 343.147 477.116C332.499 474.746 324.425 469.27 319.605 462.033C314.926 455.006 311.912 444.223 315.178 428.373L270.38 419.187C265.033 445.141 269.132 468.691 281.515 487.291C293.753 505.674 312.686 517.1 333.197 521.664C374.154 530.774 423.068 513.327 452.679 467.784L414.313 442.947V442.941ZM291.196 264.404C373.268 261.092 411.036 292.459 426.023 326.762C442.165 363.71 435.158 410.885 414.319 442.941L452.684 467.778C480.636 424.786 491.085 361.486 467.947 308.525C443.649 252.913 385.412 214.929 289.349 218.808L291.196 264.41V264.404ZM54.8067 511.683C73.1831 450.483 100.736 389.289 139.781 343.109C178.446 297.379 227.747 266.967 291.202 264.404L289.355 218.803C210.302 221.997 149.79 260.501 104.829 313.679C60.248 366.407 30.3673 434.101 11 498.583L54.8125 511.683H54.8067ZM1121.74 321.906L1125.22 344.455L1125.94 344.344L1126.64 344.191L1121.73 321.906H1121.74ZM292.785 423.78L270.926 417.075L270.603 418.116L270.38 419.187L292.779 423.78H292.785Z" fill="#0041DC"/>
<path d="M1115.65 317.14C1170.97 304.946 1307.68 262.268 1417 187.352L1391.21 149.44C1288.31 219.955 1157.67 260.879 1105.84 272.302L1115.65 317.134V317.14ZM752.184 3.5739C710.816 12.5721 683.345 44.9162 673.606 83.7515C663.89 122.475 671.266 168.331 698.321 209.473C753.075 292.729 884.225 353.009 1114.23 317.405L1107.26 272.037C885.621 306.347 777.098 245.931 736.493 184.191C715.871 152.836 711.649 120.109 717.958 94.9625C724.238 69.9276 740.421 53.1082 761.876 48.4355L752.189 3.5739H752.184ZM895.794 306.376C899.236 299.42 901.716 288.945 903.575 278.593C905.592 267.364 907.345 253.482 908.471 238.069C910.711 207.349 910.553 169.326 904.495 132.956C898.526 97.134 886.336 59.823 862.078 33.6346C836.285 5.78667 799.432 -6.70724 752.184 3.56802L761.87 48.4296C794.9 41.244 814.824 50.0362 828.574 64.8841C843.86 81.3916 853.987 108.186 859.375 140.518C864.67 172.309 864.905 206.501 862.847 234.708C861.82 248.756 860.249 261.014 858.555 270.436C857.704 275.156 856.86 278.981 856.092 281.859C855.247 285.014 854.737 286.12 854.814 285.961L895.782 306.364L895.794 306.376ZM546.619 409.07C607.219 444.045 659.141 458.545 703.704 458.451C748.595 458.357 784.304 443.444 812.033 422.653C865.925 382.246 889.672 318.758 895.794 306.37L854.825 285.967C846.118 303.575 827.542 353.721 784.662 385.877C763.999 401.372 737.706 412.471 703.616 412.542C669.191 412.613 625.144 401.425 569.422 369.269L546.625 409.064L546.619 409.07ZM303.639 403.938C308.605 387.731 324.912 365.215 360.363 357.558C396.564 349.737 456.015 356.787 546.613 409.07L569.41 369.275C473.893 314.15 402.492 301.498 350.735 312.679C298.232 324.025 269.483 359.224 259.92 390.444L303.639 403.932V403.938ZM403.313 416.467C383.571 447.011 353.52 455.62 332.147 450.842C321.499 448.458 313.425 442.95 308.605 435.67C303.926 428.602 300.912 417.756 304.178 401.814L259.38 392.574C254.033 418.68 258.132 442.367 270.515 461.076C282.753 479.567 301.686 491.06 322.197 495.65C363.154 504.813 412.068 487.264 441.679 441.455L403.313 416.473V416.467ZM280.196 236.886C362.268 233.555 400.036 265.104 415.023 299.608C431.165 336.772 424.158 384.223 403.319 416.467L441.684 441.449C469.636 398.206 480.085 334.536 456.947 281.265C432.649 225.328 374.412 187.122 278.349 191.024L280.196 236.892V236.886ZM43.8067 485.611C62.1831 424.053 89.7359 362.502 128.781 316.051C167.446 270.054 216.747 239.463 280.202 236.886L278.355 191.018C199.302 194.231 138.79 232.966 93.8287 286.449C49.248 339.485 19.3673 407.575 0 472.434L43.8125 485.611H43.8067ZM1110.74 294.724L1114.22 317.405L1114.94 317.293L1115.64 317.14L1110.73 294.724H1110.74ZM281.785 397.2L259.926 390.456L259.603 391.503L259.38 392.58L281.779 397.2H281.785Z" fill="#A4EA5E"/>
</svg>
