<svg width="1696" height="461" viewBox="0 0 1696 461" fill="none" xmlns="http://www.w3.org/2000/svg">
<path d="M1338.38 302.897C1404.02 292.238 1566.27 254.931 1696 189.443L1665.4 156.303C1543.29 217.942 1388.25 253.716 1326.74 263.702L1338.38 302.892L1338.38 302.897ZM903.189 24.1693C853.575 31.7469 821.198 60.4783 810.113 94.8016C799.063 129.006 808.408 169.59 840.939 206.08C906.849 280.009 1063.41 334.293 1336.69 303.133L1328.41 263.475C1065.72 293.431 935.636 239.384 886.252 183.995C861.139 155.829 855.67 126.506 862.9 104.118C870.095 81.848 889.078 67.2997 914.17 63.4672L903.189 24.1693ZM1077.47 293.493C1081.65 287.273 1084.48 277.931 1086.55 268.831C1088.8 258.907 1090.68 246.638 1091.77 233.01C1093.96 205.843 1093.13 172.199 1085.35 139.974C1077.69 108.208 1062.65 75.2375 1033.72 51.954C1003.06 27.2713 959.351 15.5885 903.189 24.1693L914.17 63.4672C952.824 57.5614 976.789 65.458 993.746 79.1009C1012.44 94.1482 1024.98 118.265 1031.92 147.027C1038.75 175.332 1039.6 205.673 1037.59 230.634C1036.59 243.068 1034.91 253.896 1033.02 262.194C1032.07 266.351 1031.12 269.71 1030.24 272.221C1029.28 274.988 1028.7 275.889 1028.85 275.657L1077.47 293.493ZM663.095 383.262C735.011 413.835 796.628 426.511 849.512 426.429C902.786 426.346 945.163 413.31 978.069 395.135C1042.02 359.814 1070.21 304.317 1077.47 293.488L1028.85 275.652C1018.52 291.044 996.474 334.879 945.58 362.988C921.058 376.533 889.857 386.236 849.4 386.297C808.547 386.359 756.276 376.58 690.149 348.471L663.095 383.257V383.262ZM374.744 378.776C380.638 364.609 399.989 344.926 442.06 338.233C485.021 331.396 555.573 337.559 663.088 383.262L690.142 348.476C576.789 300.288 492.056 289.228 430.634 299.002C368.328 308.921 334.211 339.689 322.862 366.98L374.744 378.771V378.776ZM493.031 389.729C469.601 416.428 433.939 423.954 408.576 419.777C395.939 417.693 386.358 412.878 380.638 406.515C375.085 400.336 371.508 390.855 375.384 376.919L322.222 368.842C315.875 391.663 320.739 412.369 335.436 428.723C349.958 444.887 372.427 454.934 396.767 458.946C445.372 466.956 503.42 451.615 538.56 411.572L493.031 389.734V389.729ZM346.924 232.748C444.321 229.836 489.141 257.415 506.927 287.577C526.083 320.063 517.768 361.543 493.038 389.729L538.567 411.566C571.738 373.766 584.137 318.109 556.679 271.542C527.844 222.644 458.732 189.247 344.732 192.658L346.924 232.753V232.748ZM66.3943 450.17C88.202 396.36 120.9 342.555 167.236 301.95C213.12 261.742 271.627 235.001 346.931 232.748L344.739 192.653C250.925 195.462 179.114 229.317 125.757 276.074C72.8517 322.435 37.3915 381.955 14.4077 438.652L66.4012 450.17H66.3943ZM1332.55 283.307L1336.69 303.133L1337.54 303.036L1338.37 302.902L1332.55 283.307H1332.55ZM348.81 372.881L322.869 366.985L322.486 367.901L322.222 368.842L348.803 372.881H348.81Z" fill="#FDA12D"/>
<path d="M1323.97 278.996C1389.62 268.268 1551.86 230.723 1681.59 164.818L1650.99 131.466C1528.88 193.499 1373.84 229.502 1312.33 239.551L1323.97 278.99V278.996ZM892.637 3.14404C843.545 11.06 810.944 39.5139 799.386 73.6782C787.856 107.744 796.61 148.085 828.716 184.279C893.694 257.521 1049.33 310.551 1322.29 279.229L1314.01 239.318C1050.99 269.501 922.203 216.352 874.016 162.038C849.543 134.453 844.533 105.663 852.02 83.5408C859.473 61.517 878.678 46.7205 904.139 42.6099L892.644 3.14404H892.637ZM1063.06 269.527C1067.15 263.407 1070.09 254.192 1072.3 245.085C1074.69 235.207 1076.77 222.994 1078.11 209.435C1080.77 182.41 1080.58 148.96 1073.39 116.965C1066.31 85.4512 1051.84 52.6277 1023.05 29.5892C992.442 5.09067 948.708 -5.90052 892.637 3.13887L904.132 42.6047C943.329 36.2833 966.974 44.018 983.291 57.0801C1001.43 71.6022 1013.45 95.174 1019.84 123.617C1026.13 151.585 1026.41 181.664 1023.96 206.479C1022.75 218.837 1020.88 229.621 1018.87 237.909C1017.86 242.061 1016.86 245.427 1015.95 247.958C1014.95 250.733 1014.34 251.707 1014.43 251.567L1063.05 269.516L1063.06 269.527ZM648.687 359.869C720.603 390.637 782.22 403.393 835.104 403.311C888.378 403.228 930.755 390.109 963.661 371.818C1027.62 336.271 1055.8 280.419 1063.06 269.521L1014.44 251.572C1004.11 267.062 982.067 311.177 931.179 339.465C906.658 353.097 875.456 362.861 835 362.923C794.147 362.985 741.875 353.143 675.749 324.855L648.694 359.864L648.687 359.869ZM360.336 355.354C366.23 341.096 385.581 321.288 427.652 314.553C470.614 307.672 541.165 313.874 648.68 359.869L675.735 324.86C562.382 276.366 477.649 265.235 416.226 275.071C353.921 285.053 319.803 316.018 308.454 343.483L360.336 355.349V355.354ZM478.623 366.376C455.194 393.246 419.532 400.82 394.168 396.616C381.532 394.52 371.95 389.674 366.23 383.27C360.677 377.052 357.101 367.51 360.976 353.485L307.814 345.357C301.468 368.323 306.332 389.161 321.028 405.62C335.55 421.886 358.019 431.997 382.36 436.036C430.964 444.097 489.012 428.658 524.152 388.359L478.623 366.382V366.376ZM332.516 208.394C429.914 205.464 474.733 233.219 492.519 263.573C511.675 296.267 503.36 338.011 478.63 366.376L524.159 388.354C557.33 350.312 569.73 294.299 542.272 247.435C513.436 198.226 444.325 164.616 330.324 168.048L332.516 208.399V208.394ZM51.9866 427.203C73.7943 373.05 106.492 318.901 152.828 278.038C198.712 237.573 257.219 210.662 332.523 208.394L330.331 168.043C236.518 170.87 164.706 204.946 111.349 251.997C58.444 298.653 22.9837 358.554 0 415.612L51.9935 427.203H51.9866ZM1318.15 259.276L1322.28 279.229L1323.13 279.13L1323.96 278.996L1318.14 259.276H1318.15ZM334.402 349.426L308.461 343.493L308.078 344.415L307.814 345.362L334.395 349.426H334.402Z" fill="#A4EA5E"/>
</svg>
