<svg width="12" height="17" viewBox="0 0 12 17" fill="none" xmlns="http://www.w3.org/2000/svg">
<g clip-path="url(#clip0_39_9)">
<path d="M5.96781 16.1189C5.96781 16.1189 5.65536 15.7544 5.03046 15.0253C4.40556 14.2963 3.72077 13.411 2.97609 12.3695C2.23142 11.328 1.55184 10.2344 0.937353 9.08875C0.312451 7.95351 0 6.96929 0 6.13609C0 5.30289 0.156225 4.52176 0.468676 3.79271C0.781127 3.06366 1.20814 2.42834 1.74972 1.88676C2.29131 1.34518 2.92142 0.912956 3.64005 0.59009C4.3691 0.277639 5.14502 0.121413 5.96781 0.121413C6.7906 0.121413 7.56131 0.277639 8.27995 0.59009C9.009 0.912956 9.64171 1.34518 10.1781 1.88676C10.7145 2.42834 11.1389 3.06366 11.4513 3.79271C11.7638 4.52176 11.92 5.30289 11.92 6.13609C11.92 6.96929 11.6128 7.95351 10.9983 9.08875C10.3734 10.2344 9.68858 11.328 8.94391 12.3695C8.19923 13.411 7.51444 14.2963 6.88954 15.0253C6.27505 15.7544 5.96781 16.1189 5.96781 16.1189ZM5.96781 8.26076C6.64479 8.26076 7.22543 8.02121 7.70972 7.54212C8.19402 7.06303 8.43617 6.47979 8.43617 5.7924C8.43617 5.11542 8.19402 4.53478 7.70972 4.05048C7.22543 3.56618 6.64479 3.32403 5.96781 3.32403C5.28042 3.32403 4.69457 3.56618 4.21028 4.05048C3.72598 4.53478 3.48383 5.11542 3.48383 5.7924C3.48383 6.47979 3.72598 7.06303 4.21028 7.54212C4.69457 8.02121 5.28042 8.26076 5.96781 8.26076Z" fill="black"/>
</g>
<defs>
<clipPath id="clip0_39_9">
<rect width="11.92" height="16" fill="white" transform="matrix(1 0 0 -1 0 16.1201)"/>
</clipPath>
</defs>
</svg>
